<svg width="135" height="40" viewBox="0 0 135 40" fill="none" xmlns="http://www.w3.org/2000/svg">
<g clip-path="url(#clip0)">
<path d="M124.249 0.371586H10.7566C10.3429 0.371586 9.9342 0.371586 9.5216 0.373533C9.17621 0.375479 8.83358 0.381132 8.48488 0.38589C7.72733 0.393579 6.97157 0.451063 6.22416 0.557841C5.4778 0.666943 4.75482 0.872632 4.07967 1.16795C3.40534 1.46577 2.7892 1.85275 2.25357 2.31486C1.71514 2.77567 1.26632 3.30831 0.924356 3.89229C0.581453 4.4751 0.343683 5.09964 0.219258 5.74434C0.0936495 6.38822 0.0260586 7.03953 0.0170916 7.69241C0.00662229 7.99076 0.00551669 8.29009 0 8.58847V31.0801C0.00551669 31.3823 0.00662229 31.675 0.0170916 31.9772C0.0260614 32.63 0.0936522 33.2813 0.219258 33.9252C0.343339 34.5702 0.581124 35.1951 0.924356 35.7782C1.26616 36.3603 1.71505 36.8907 2.25357 37.349C2.78717 37.8132 3.40371 38.2004 4.07967 38.4959C4.75481 38.792 5.47772 38.999 6.22416 39.1098C6.9717 39.2157 7.72738 39.2732 8.48488 39.2818C8.83358 39.2884 9.17621 39.2922 9.5216 39.2922C9.93419 39.2941 10.343 39.2941 10.7566 39.2941H124.249C124.655 39.2941 125.067 39.2941 125.472 39.2922C125.816 39.2922 126.169 39.2884 126.512 39.2818C127.268 39.2736 128.023 39.2161 128.769 39.1098C129.518 38.9982 130.243 38.7913 130.921 38.4959C131.597 38.2002 132.213 37.813 132.746 37.349C133.283 36.8889 133.733 36.3589 134.079 35.7782C134.42 35.1947 134.655 34.5699 134.777 33.9252C134.903 33.2812 134.973 32.6301 134.987 31.9772C134.991 31.675 134.991 31.3823 134.991 31.0801C135 30.7266 135 30.375 135 30.0158V9.65085C135 9.29451 135 8.94101 134.991 8.58847C134.991 8.29009 134.991 7.99076 134.987 7.69238C134.973 7.03943 134.903 6.38827 134.777 5.7443C134.655 5.09998 134.419 4.47549 134.079 3.89225C133.383 2.72173 132.278 1.76893 130.921 1.16786C130.243 0.873267 129.518 0.667632 128.769 0.557753C128.023 0.450505 127.269 0.393001 126.512 0.385754C126.169 0.381006 125.816 0.375304 125.472 0.373406C125.067 0.37146 124.655 0.37146 124.249 0.37146V0.371586Z" fill="#A6A6A6"/>
<path d="M9.43001 38.4456C9.08569 38.4456 8.74969 38.4418 8.40807 38.4352C7.70037 38.4273 6.99433 38.3742 6.29574 38.2765C5.64433 38.1798 5.0133 38.0001 4.42345 37.7432C3.839 37.4884 3.30594 37.1544 2.84469 36.7538C2.37676 36.3579 1.98718 35.8988 1.6914 35.3946C1.39236 34.8871 1.18541 34.3432 1.07775 33.7817C0.961494 33.1784 0.898592 32.5684 0.889592 31.9568C0.882427 31.7516 0.873047 31.0682 0.873047 31.0682V8.58513C0.873047 8.58513 0.883037 7.9122 0.889648 7.71451C0.898266 7.10396 0.960802 6.49486 1.07671 5.89248C1.18457 5.32946 1.39168 4.78395 1.69088 4.27481C1.98557 3.77097 2.37299 3.3115 2.8381 2.91423C3.30269 2.51319 3.83745 2.1774 4.42289 1.9191C5.01139 1.66301 5.64123 1.48455 6.29132 1.3897C6.99221 1.29098 7.7007 1.2376 8.41085 1.23002L9.43056 1.21814H125.57L126.602 1.2305C127.306 1.2377 128.008 1.2906 128.702 1.38874C129.359 1.48479 129.995 1.6645 130.59 1.92195C131.763 2.4425 132.718 3.26605 133.32 4.27719C133.614 4.78281 133.818 5.32387 133.924 5.88203C134.042 6.48935 134.107 7.10323 134.121 7.71879C134.124 7.99442 134.124 8.29048 134.124 8.58513C134.133 8.95011 134.133 9.29749 134.133 9.64774V30.0169C134.133 30.3705 134.133 30.7155 134.124 31.0634C134.124 31.3799 134.124 31.6698 134.12 31.9682C134.107 32.5728 134.042 33.1757 133.927 33.7722C133.821 34.3377 133.615 34.8859 133.316 35.3975C133.018 35.8963 132.631 36.3514 132.169 36.7462C131.707 37.1489 131.173 37.485 130.587 37.7414C129.994 38.0002 129.358 38.1806 128.702 38.2765C128.004 38.3747 127.297 38.4278 126.59 38.4352C126.259 38.4418 125.912 38.4456 125.576 38.4456L124.35 38.4476L9.43001 38.4456Z" fill="black"/>
<path d="M32.7973 20.1255C32.8081 19.3133 33.0298 18.517 33.4418 17.8106C33.8538 17.1042 34.4428 16.5107 35.1539 16.0853C34.7021 15.4575 34.1062 14.9409 33.4134 14.5764C32.7205 14.2119 31.9499 14.0097 31.1627 13.9857C29.4835 13.8142 27.8555 14.9635 26.9998 14.9635C26.1275 14.9635 24.81 14.0027 23.3913 14.0311C22.4736 14.06 21.5793 14.3197 20.7954 14.7848C20.0115 15.25 19.3649 15.9049 18.9184 16.6855C16.9844 19.9438 18.427 24.7323 20.2796 27.366C21.2065 28.6556 22.2898 30.0962 23.7072 30.0451C25.0943 29.9891 25.6123 29.1844 27.2866 29.1844C28.9454 29.1844 29.4314 30.0451 30.8776 30.0126C32.366 29.9891 33.3038 28.7172 34.1981 27.4154C34.8641 26.4965 35.3766 25.4808 35.7166 24.4062C34.8518 24.0503 34.1139 23.4546 33.5948 22.6934C33.0757 21.9322 32.7983 21.0391 32.7973 20.1255Z" fill="white"/>
<path d="M30.0657 12.2545C30.8772 11.3065 31.277 10.0881 31.1802 8.85791C29.9403 8.98462 28.7951 9.56122 27.9726 10.4728C27.5704 10.9182 27.2625 11.4362 27.0662 11.9975C26.87 12.5587 26.7893 13.1521 26.8289 13.7437C27.449 13.7499 28.0625 13.6191 28.6232 13.3611C29.1838 13.1032 29.6771 12.7248 30.0657 12.2545Z" fill="white"/>
<path d="M50.3307 26.7808H45.5973L44.4606 30.0469H42.4557L46.9391 17.9634H49.0221L53.5055 30.0469H51.4664L50.3307 26.7808ZM46.0875 25.2737H49.8395L47.9899 19.9732H47.9381L46.0875 25.2737Z" fill="white"/>
<path d="M63.1881 25.6418C63.1881 28.3795 61.6823 30.1384 59.4098 30.1384C58.8342 30.1677 58.2617 30.0387 57.7579 29.7661C57.2541 29.4935 56.8394 29.0884 56.5612 28.5971H56.5182V32.9607H54.6598V21.2364H56.4586V22.7017H56.4928C56.7838 22.2127 57.2055 21.8097 57.7131 21.5355C58.2208 21.2612 58.7953 21.126 59.3756 21.1442C61.6735 21.1442 63.1881 22.9117 63.1881 25.6418ZM61.278 25.6418C61.278 23.8582 60.3307 22.6855 58.8854 22.6855C57.4655 22.6855 56.5104 23.8829 56.5104 25.6418C56.5104 27.4169 57.4655 28.6056 58.8854 28.6056C60.3307 28.6056 61.278 27.4416 61.278 25.6418Z" fill="white"/>
<path d="M73.153 25.6418C73.153 28.3795 71.6471 30.1384 69.3747 30.1384C68.799 30.1677 68.2265 30.0387 67.7227 29.7661C67.2189 29.4935 66.8042 29.0883 66.526 28.5971H66.483V32.9606H64.6246V21.2364H66.4235V22.7017H66.4576C66.7486 22.2127 67.1703 21.8097 67.678 21.5355C68.1856 21.2612 68.7601 21.126 69.3405 21.1442C71.6383 21.1442 73.153 22.9117 73.153 25.6418ZM71.2428 25.6418C71.2428 23.8581 70.2956 22.6855 68.8502 22.6855C67.4303 22.6855 66.4752 23.8828 66.4752 25.6418C66.4752 27.4169 67.4303 28.6056 68.8502 28.6056C70.2956 28.6056 71.2428 27.4416 71.2428 25.6418H71.2428Z" fill="white"/>
<path d="M79.7389 26.6795C79.8766 27.8777 81.0729 28.6645 82.7077 28.6645C84.2741 28.6645 85.401 27.8777 85.401 26.7972C85.401 25.8593 84.7213 25.2977 83.112 24.9129L81.5026 24.5356C79.2223 23.9997 78.1637 22.962 78.1637 21.2781C78.1637 19.1933 80.0309 17.7612 82.6823 17.7612C85.3063 17.7612 87.1051 19.1933 87.1657 21.2781H85.2897C85.1774 20.0723 84.153 19.3444 82.6559 19.3444C81.1588 19.3444 80.1344 20.0808 80.1344 21.1527C80.1344 22.007 80.7887 22.5097 82.3893 22.8945L83.7574 23.2214C86.3053 23.8077 87.3639 24.8036 87.3639 26.571C87.3639 28.8317 85.5133 30.2476 82.5699 30.2476C79.816 30.2476 77.9567 28.865 77.8365 26.6794L79.7389 26.6795Z" fill="white"/>
<path d="M91.3746 19.1515V21.2364H93.0963V22.6684H91.3746V27.5252C91.3746 28.2797 91.7194 28.6313 92.4762 28.6313C92.6806 28.6278 92.8846 28.6138 93.0875 28.5894V30.0129C92.7472 30.0748 92.4014 30.1028 92.0553 30.0965C90.2223 30.0965 89.5074 29.4266 89.5074 27.718V22.6684H88.191V21.2364H89.5074V19.1515H91.3746Z" fill="white"/>
<path d="M94.0934 25.6418C94.0934 22.8699 95.7711 21.1281 98.3873 21.1281C101.012 21.1281 102.682 22.8698 102.682 25.6418C102.682 28.4213 101.021 30.1555 98.3873 30.1555C95.7545 30.1555 94.0934 28.4213 94.0934 25.6418ZM100.789 25.6418C100.789 23.7403 99.8932 22.6181 98.3873 22.6181C96.8815 22.6181 95.9869 23.7489 95.9869 25.6418C95.9869 27.5508 96.8815 28.6645 98.3873 28.6645C99.8932 28.6645 100.789 27.5508 100.789 25.6418H100.789Z" fill="white"/>
<path d="M104.214 21.2364H105.987V22.7359H106.03C106.15 22.2676 106.432 21.8537 106.828 21.5639C107.225 21.274 107.712 21.1258 108.208 21.1442C108.422 21.1435 108.635 21.1661 108.844 21.2117V22.9032C108.574 22.8228 108.292 22.7859 108.009 22.7939C107.739 22.7832 107.47 22.8295 107.22 22.9297C106.971 23.0298 106.746 23.1813 106.562 23.3739C106.378 23.5664 106.239 23.7955 106.155 24.0452C106.07 24.295 106.042 24.5595 106.073 24.8208V30.0463H104.214L104.214 21.2364Z" fill="white"/>
<path d="M117.413 27.4587C117.163 29.0579 115.562 30.1555 113.514 30.1555C110.88 30.1555 109.246 28.4384 109.246 25.6836C109.246 22.9202 110.889 21.1281 113.436 21.1281C115.941 21.1281 117.516 22.8024 117.516 25.4736V26.0931H111.122V26.2024C111.092 26.5267 111.134 26.8533 111.244 27.1606C111.354 27.4679 111.53 27.7489 111.761 27.985C111.991 28.221 112.27 28.4066 112.58 28.5295C112.89 28.6524 113.223 28.7098 113.557 28.6978C113.996 28.7378 114.437 28.6389 114.814 28.4156C115.191 28.1923 115.483 27.8567 115.648 27.4587L117.413 27.4587ZM111.13 24.8293H115.657C115.674 24.5378 115.628 24.246 115.523 23.9724C115.419 23.6988 115.257 23.4491 115.049 23.2392C114.84 23.0292 114.589 22.8635 114.312 22.7524C114.034 22.6412 113.736 22.5871 113.436 22.5933C113.134 22.5916 112.834 22.6482 112.553 22.7598C112.273 22.8715 112.019 23.036 111.805 23.2439C111.59 23.4517 111.42 23.6989 111.305 23.971C111.189 24.2431 111.13 24.5348 111.13 24.8293V24.8293Z" fill="white"/>
<path d="M45.8546 8.8684C46.2442 8.8412 46.6352 8.89847 46.9993 9.0361C47.3634 9.17372 47.6916 9.38826 47.9602 9.66425C48.2288 9.94023 48.4311 10.2708 48.5525 10.6321C48.6739 10.9933 48.7114 11.3763 48.6622 11.7534C48.6622 13.6083 47.632 14.6745 45.8546 14.6745H43.6993V8.8684H45.8546ZM44.6261 13.8534H45.7511C46.0295 13.8696 46.3081 13.8252 46.5666 13.7234C46.8252 13.6216 47.0571 13.465 47.2456 13.265C47.4341 13.0649 47.5744 12.8265 47.6563 12.5671C47.7381 12.3076 47.7595 12.0337 47.7189 11.7652C47.7566 11.4978 47.733 11.2255 47.6499 10.968C47.5668 10.7105 47.4262 10.474 47.2381 10.2756C47.05 10.0771 46.8192 9.92164 46.5621 9.82022C46.305 9.71879 46.0281 9.67394 45.7511 9.6889H44.6261V13.8534Z" fill="white"/>
<path d="M49.7091 12.4807C49.6808 12.1928 49.7147 11.9022 49.8085 11.6278C49.9024 11.3533 50.0541 11.1009 50.2541 10.8869C50.454 10.6728 50.6977 10.5018 50.9696 10.3848C51.2414 10.2677 51.5354 10.2073 51.8327 10.2073C52.1299 10.2073 52.4239 10.2677 52.6958 10.3848C52.9676 10.5018 53.2113 10.6728 53.4113 10.8869C53.6112 11.1009 53.763 11.3533 53.8568 11.6278C53.9507 11.9022 53.9845 12.1928 53.9562 12.4807C53.9851 12.769 53.9516 13.0599 53.858 13.3348C53.7644 13.6097 53.6128 13.8625 53.4128 14.077C53.2128 14.2915 52.9689 14.4629 52.6968 14.5802C52.4246 14.6975 52.1303 14.7581 51.8327 14.7581C51.5351 14.7581 51.2407 14.6975 50.9686 14.5802C50.6965 14.4629 50.4526 14.2915 50.2526 14.077C50.0526 13.8625 49.9009 13.6097 49.8073 13.3348C49.7137 13.0599 49.6803 12.769 49.7091 12.4807ZM53.0421 12.4807C53.0421 11.5309 52.6037 10.9755 51.8341 10.9755C51.0617 10.9755 50.6271 11.5309 50.6271 12.4807C50.6271 13.4381 51.0617 13.9893 51.8341 13.9893C52.6037 13.9893 53.0422 13.4343 53.0422 12.4807H53.0421Z" fill="white"/>
<path d="M59.6017 14.6734H58.6798L57.7491 11.4463H57.6788L56.7521 14.6734H55.839L54.5978 10.2917H55.4991L56.3058 13.6352H56.3722L57.298 10.2917H58.1505L59.0763 13.6352H59.1466L59.9493 10.2917H60.838L59.6017 14.6734Z" fill="white"/>
<path d="M61.882 10.2918H62.7374V10.9878H62.8038C62.9165 10.7378 63.1065 10.5283 63.3474 10.3883C63.5882 10.2484 63.868 10.1851 64.1476 10.2072C64.3667 10.1912 64.5867 10.2233 64.7913 10.3012C64.9959 10.3792 65.1798 10.5009 65.3295 10.6574C65.4792 10.8139 65.5908 11.0012 65.656 11.2054C65.7212 11.4096 65.7383 11.6254 65.7062 11.8369V14.6734H64.8175V12.054C64.8175 11.3499 64.5031 10.9997 63.8458 10.9997C63.6971 10.993 63.5486 11.0176 63.4105 11.0719C63.2725 11.1263 63.1481 11.209 63.046 11.3145C62.9439 11.4199 62.8664 11.5456 62.8188 11.683C62.7713 11.8203 62.7549 11.966 62.7706 12.1101V14.6734H61.882L61.882 10.2918Z" fill="white"/>
<path d="M67.1222 8.5813H68.0109V14.6734H67.1222V8.5813Z" fill="white"/>
<path d="M69.2462 12.4807C69.2179 12.1927 69.2518 11.9022 69.3457 11.6277C69.4395 11.3532 69.5913 11.1008 69.7913 10.8868C69.9912 10.6727 70.235 10.5017 70.5068 10.3846C70.7787 10.2676 71.0727 10.2072 71.37 10.2072C71.6673 10.2072 71.9613 10.2676 72.2332 10.3846C72.505 10.5017 72.7488 10.6727 72.9487 10.8868C73.1487 11.1008 73.3005 11.3532 73.3943 11.6277C73.4882 11.9022 73.5221 12.1927 73.4938 12.4807C73.5226 12.7689 73.4891 13.0599 73.3955 13.3348C73.3019 13.6097 73.1502 13.8625 72.9502 14.077C72.7502 14.2914 72.5062 14.4628 72.2341 14.5801C71.962 14.6974 71.6676 14.758 71.37 14.758C71.0724 14.758 70.778 14.6974 70.5059 14.5801C70.2338 14.4628 69.9899 14.2914 69.7898 14.077C69.5898 13.8625 69.4381 13.6097 69.3445 13.3348C69.2509 13.0599 69.2174 12.7689 69.2462 12.4807ZM72.5792 12.4807C72.5792 11.5309 72.1407 10.9755 71.3712 10.9755C70.5988 10.9755 70.1642 11.5309 70.1642 12.4807C70.1642 13.4381 70.5988 13.9892 71.3712 13.9892C72.1408 13.9892 72.5792 13.4343 72.5792 12.4807H72.5792Z" fill="white"/>
<path d="M74.4293 13.4342C74.4293 12.6455 75.0328 12.1908 76.1041 12.1262L77.3239 12.0578V11.6796C77.3239 11.2168 77.0094 10.9555 76.402 10.9555C75.9059 10.9555 75.5621 11.1327 75.4635 11.4425H74.6031C74.694 10.6899 75.4215 10.2072 76.443 10.2072C77.5719 10.2072 78.2086 10.754 78.2086 11.6796V14.6734H77.3531V14.0576H77.2828C77.1401 14.2785 76.9397 14.4585 76.7021 14.5794C76.4645 14.7003 76.1981 14.7576 75.9303 14.7456C75.7413 14.7647 75.5502 14.7451 75.3694 14.6879C75.1887 14.6308 75.0222 14.5375 74.8808 14.4139C74.7394 14.2904 74.6262 14.1394 74.5484 13.9706C74.4706 13.8019 74.4301 13.6192 74.4293 13.4342ZM77.3239 13.0598V12.6935L76.2242 12.7619C75.6041 12.8023 75.3229 13.0076 75.3229 13.3938C75.3229 13.7882 75.6744 14.0177 76.1579 14.0177C76.2995 14.0316 76.4426 14.0177 76.5786 13.9767C76.7146 13.9358 76.8408 13.8686 76.9495 13.7793C77.0583 13.6899 77.1475 13.5802 77.2118 13.4566C77.2761 13.333 77.3142 13.198 77.3239 13.0598Z" fill="white"/>
<path d="M79.3766 12.4807C79.3766 11.0962 80.108 10.2191 81.2457 10.2191C81.5271 10.2065 81.8064 10.2721 82.051 10.4082C82.2955 10.5443 82.4951 10.7453 82.6266 10.9878H82.693V8.5813H83.5817V14.6734H82.7301V13.9811H82.6598C82.5182 14.222 82.3116 14.4205 82.0623 14.5552C81.8131 14.69 81.5307 14.7558 81.2457 14.7456C80.1002 14.7457 79.3766 13.8685 79.3766 12.4807ZM80.2946 12.4807C80.2946 13.4101 80.7448 13.9693 81.4977 13.9693C82.2467 13.9693 82.7096 13.402 82.7096 12.4845C82.7096 11.5713 82.2419 10.9959 81.4977 10.9959C80.7496 10.9959 80.2946 11.5589 80.2946 12.4807H80.2946Z" fill="white"/>
<path d="M87.2585 12.4807C87.2301 12.1928 87.264 11.9022 87.3578 11.6278C87.4517 11.3533 87.6034 11.1009 87.8034 10.8869C88.0033 10.6728 88.247 10.5018 88.5189 10.3848C88.7907 10.2677 89.0847 10.2073 89.382 10.2073C89.6793 10.2073 89.9732 10.2677 90.2451 10.3848C90.5169 10.5018 90.7607 10.6728 90.9606 10.8869C91.1605 11.1009 91.3123 11.3533 91.4061 11.6278C91.5 11.9022 91.5338 12.1928 91.5055 12.4807C91.5344 12.769 91.5009 13.0599 91.4073 13.3348C91.3137 13.6097 91.1621 13.8625 90.9621 14.077C90.7621 14.2915 90.5182 14.4629 90.2461 14.5802C89.9739 14.6975 89.6796 14.7581 89.382 14.7581C89.0844 14.7581 88.79 14.6975 88.5179 14.5802C88.2458 14.4629 88.0019 14.2915 87.8019 14.077C87.6019 13.8625 87.4502 13.6097 87.3566 13.3348C87.2631 13.0599 87.2296 12.769 87.2585 12.4807ZM90.5915 12.4807C90.5915 11.5309 90.153 10.9755 89.3835 10.9755C88.611 10.9755 88.1765 11.5309 88.1765 12.4807C88.1765 13.4381 88.611 13.9893 89.3835 13.9893C90.153 13.9893 90.5915 13.4343 90.5915 12.4807Z" fill="white"/>
<path d="M92.6979 10.2918H93.5533V10.9878H93.6198C93.7324 10.7378 93.9224 10.5283 94.1633 10.3883C94.4042 10.2484 94.6839 10.1851 94.9635 10.2072C95.1826 10.1912 95.4026 10.2233 95.6072 10.3012C95.8118 10.3792 95.9958 10.5009 96.1454 10.6574C96.2951 10.8139 96.4067 11.0012 96.4719 11.2054C96.5371 11.4096 96.5543 11.6254 96.5221 11.8369V14.6734H95.6334V12.054C95.6334 11.3499 95.319 10.9997 94.6618 10.9997C94.513 10.993 94.3645 11.0176 94.2264 11.0719C94.0884 11.1263 93.964 11.209 93.8619 11.3145C93.7598 11.4199 93.6823 11.5456 93.6348 11.683C93.5872 11.8203 93.5708 11.966 93.5865 12.1101V14.6734H92.6979V10.2918Z" fill="white"/>
<path d="M101.544 9.20093V10.3118H102.519V11.0402H101.544V13.2932C101.544 13.7522 101.738 13.9532 102.18 13.9532C102.294 13.9528 102.407 13.9462 102.519 13.9332V14.6535C102.36 14.6813 102.198 14.6961 102.036 14.6977C101.047 14.6977 100.654 14.3594 100.654 13.5146V11.0401H99.9391V10.3117H100.654V9.20093H101.544Z" fill="white"/>
<path d="M103.733 8.5813H104.614V10.9959H104.684C104.802 10.7436 104.998 10.5328 105.243 10.3924C105.489 10.2519 105.773 10.1886 106.057 10.211C106.275 10.1995 106.493 10.2349 106.695 10.3147C106.898 10.3945 107.079 10.5168 107.227 10.6728C107.376 10.8289 107.486 11.0148 107.552 11.2173C107.618 11.4198 107.637 11.634 107.608 11.8445V14.6734H106.718V12.0578C106.718 11.3579 106.383 11.0035 105.756 11.0035C105.603 10.9913 105.449 11.0117 105.305 11.0634C105.162 11.115 105.031 11.1966 104.923 11.3024C104.815 11.4082 104.732 11.5357 104.68 11.6759C104.628 11.8162 104.608 11.9658 104.622 12.1143V14.6734H103.733L103.733 8.5813Z" fill="white"/>
<path d="M112.79 13.4904C112.669 13.8908 112.407 14.2372 112.051 14.4689C111.694 14.7007 111.265 14.803 110.839 14.758C110.542 14.7656 110.247 14.7103 109.975 14.596C109.702 14.4816 109.458 14.3109 109.26 14.0957C109.063 13.8806 108.915 13.626 108.828 13.3499C108.742 13.0737 108.718 12.7825 108.758 12.4964C108.719 12.2095 108.743 11.9176 108.83 11.6406C108.916 11.3636 109.063 11.1079 109.26 10.8908C109.457 10.6738 109.699 10.5004 109.971 10.3825C110.243 10.2645 110.537 10.2048 110.835 10.2072C112.088 10.2072 112.843 11.0402 112.843 12.4161V12.7178H109.664V12.7663C109.65 12.9271 109.671 13.0889 109.725 13.2415C109.779 13.394 109.865 13.5338 109.978 13.652C110.091 13.7702 110.228 13.8641 110.38 13.9277C110.533 13.9914 110.697 14.0233 110.863 14.0215C111.076 14.0464 111.291 14.0091 111.482 13.9145C111.672 13.8199 111.83 13.6723 111.934 13.4903L112.79 13.4904ZM109.664 12.0783H111.938C111.949 11.9312 111.929 11.7835 111.878 11.6446C111.827 11.5058 111.747 11.3788 111.642 11.2719C111.538 11.165 111.412 11.0805 111.272 11.0239C111.132 10.9673 110.981 10.9398 110.83 10.9432C110.676 10.9413 110.523 10.9694 110.381 11.0258C110.239 11.0822 110.109 11.1657 110.001 11.2715C109.892 11.3773 109.806 11.5032 109.748 11.6417C109.691 11.7803 109.662 11.9287 109.664 12.0783H109.664Z" fill="white"/>
</g>
<defs>
<clipPath id="clip0">
<rect width="135" height="38.9226" fill="white" transform="translate(0 0.371582)"/>
</clipPath>
</defs>
</svg>
