<svg width="26" height="19" viewBox="0 0 26 19" fill="none" xmlns="http://www.w3.org/2000/svg">
<path d="M12.8 13.4891C13.6487 13.4891 14.4626 13.1043 15.0627 12.4192C15.6628 11.7341 16 10.805 16 9.83612C16 8.86728 15.6628 7.93812 15.0627 7.25305C14.4626 6.56798 13.6487 6.18311 12.8 6.18311C11.9513 6.18311 11.1373 6.56798 10.5372 7.25305C9.93712 7.93812 9.59998 8.86728 9.59998 9.83612C9.59998 10.805 9.93712 11.7341 10.5372 12.4192C11.1373 13.1043 11.9513 13.4891 12.8 13.4891Z" fill="#888888"/>
<path d="M0 2.52993C0 2.0455 0.168571 1.5809 0.468629 1.23836C0.768687 0.89581 1.17565 0.703369 1.6 0.703369H24C24.4243 0.703369 24.8313 0.89581 25.1313 1.23836C25.4314 1.5809 25.6 2.0455 25.6 2.52993V17.1424C25.6 17.6269 25.4314 18.0915 25.1313 18.434C24.8313 18.7766 24.4243 18.969 24 18.969H1.6C1.17565 18.969 0.768687 18.7766 0.468629 18.434C0.168571 18.0915 0 17.6269 0 17.1424V2.52993ZM4.8 2.52993C4.8 3.4988 4.46285 4.42799 3.86274 5.11308C3.26262 5.79818 2.44869 6.18306 1.6 6.18306V13.4893C2.44869 13.4893 3.26262 13.8742 3.86274 14.5593C4.46285 15.2444 4.8 16.1736 4.8 17.1424H20.8C20.8 16.1736 21.1371 15.2444 21.7372 14.5593C22.3374 13.8742 23.1513 13.4893 24 13.4893V6.18306C23.1513 6.18306 22.3374 5.79818 21.7372 5.11308C21.1371 4.42799 20.8 3.4988 20.8 2.52993H4.8Z" fill="#888888"/>
</svg>
