<svg width="9" height="11" viewBox="0 0 9 11" fill="none" xmlns="http://www.w3.org/2000/svg">
<path d="M5.18754 0.307083C5.18754 0.307083 5.52671 1.52167 5.52671 2.50708C5.52671 3.45125 4.90796 4.21667 3.96379 4.21667C3.01504 4.21667 2.30004 3.45125 2.30004 2.50708L2.31379 2.34208C1.38796 3.44208 0.833374 4.8675 0.833374 6.41667C0.833374 8.4425 2.47421 10.0833 4.50004 10.0833C6.52587 10.0833 8.16671 8.4425 8.16671 6.41667C8.16671 3.94625 6.97962 1.74167 5.18754 0.307083ZM4.36712 8.70833C3.55129 8.70833 2.89129 8.06667 2.89129 7.26917C2.89129 6.52667 3.37254 6.00417 4.17921 5.83917C4.99046 5.67417 5.82921 5.28458 6.29671 4.65667C6.47546 5.24792 6.56712 5.87125 6.56712 6.50833C6.56712 7.72292 5.58171 8.70833 4.36712 8.70833Z" fill="#F11712"/>
</svg>
