<svg xmlns="http://www.w3.org/2000/svg" xmlns:xlink="http://www.w3.org/1999/xlink" viewBox="0 0 777.04 230.72"><defs><linearGradient id="linear-gradient" x1="160.84" y1="125.65" x2="213.98" y2="125.65" gradientUnits="userSpaceOnUse"><stop offset="0" stop-color="#1c75bb"/><stop offset="0.25" stop-color="#1a71b3"/><stop offset="0.65" stop-color="#14649c"/><stop offset="1" stop-color="#0e5783"/></linearGradient><linearGradient id="linear-gradient-2" x1="167.05" y1="194.18" x2="130.22" y2="122.53" xlink:href="#linear-gradient"/><linearGradient id="linear-gradient-3" x1="191.31" y1="119.78" x2="172.26" y2="104.11" xlink:href="#linear-gradient"/><linearGradient id="linear-gradient-4" x1="198.77" y1="138.13" x2="186.97" y2="138.18" xlink:href="#linear-gradient"/></defs><g id="Layer_2" data-name="Layer 2"><g id="Layer_1-2" data-name="Layer 1"><path d="M415.68,68.77c5.47,3.69,8.23,9.06,8.23,16.12,0,2.94-.47,5.09-1.36,6.3A8.91,8.91,0,0,1,417.23,95a11.79,11.79,0,0,1-2.71.42,6.93,6.93,0,0,1-4.11-1.07c1.63-1.64,2.43-4.3,2.43-8,0-5.23-1.55-9.24-4.72-12a9.9,9.9,0,0,0-5.89-2.1h-.56c-3,0-5.79,1.35-8.31,4.11a13.36,13.36,0,0,0-2.06,3.41,16.07,16.07,0,0,0-1.21,5.65c0,4.9,3.74,9.9,11.12,14.94,1.21.89,4.06,2.81,8.45,5.79a76.83,76.83,0,0,1,7.66,6,29.53,29.53,0,0,1,4.3,4.81,19,19,0,0,1,3.55,8.32,15.1,15.1,0,0,1,.28,2.57,1.21,1.21,0,0,0-.05.42v.42c0,6.26-3.41,11.81-10.18,16.67a28.42,28.42,0,0,1-7.2,3.5,32.08,32.08,0,0,1-10.27,1.83h-1.17a32.26,32.26,0,0,1-11.21-2.15,22.12,22.12,0,0,1-11.58-11.07,23.31,23.31,0,0,1-2.15-9.62c0-6.21,2-10.93,6-14.3a13,13,0,0,1,7.84-2.84h.19a10.54,10.54,0,0,1,6.4,2.1,6.15,6.15,0,0,1,2,4.53v.75a4.51,4.51,0,0,1-1.17,3.22l-.23.05a7,7,0,0,0-2.2-.43h-.61c-2.29,0-4.25,1.31-5.93,3.93a12.59,12.59,0,0,0-1.35,5.7,12.81,12.81,0,0,0,4.25,9.57,14.51,14.51,0,0,0,9.94,3.55,15.47,15.47,0,0,0,10.23-3.5,13.4,13.4,0,0,0,3.83-6.82,11.89,11.89,0,0,0,.38-2.8V130c0-4.21-2.15-7.9-6.35-11.07-2-1.59-5.28-3.83-9.81-6.82a71.72,71.72,0,0,1-7.2-5.61C382,101.19,379,94.88,379,87.6a20.71,20.71,0,0,1,7.19-15.88,25.93,25.93,0,0,1,17.14-6.12A24.47,24.47,0,0,1,415.68,68.77Z" style="fill:red"/><path d="M443.26,109.69a10.28,10.28,0,0,1,1.31,5c-.79,8.22-1.26,14.29-1.45,18.31,0,4.34,1.5,6.54,4.44,6.54,3.46,0,5.88-4.81,7.33-14.39.19-2.71.8-8.59,1.87-17.65.37-.84.89-1.31,1.54-1.31,3.27,0,5.42,1.07,6.45,3.17a10.51,10.51,0,0,1,1.45,5.1c-.7,6.3-1.08,10.64-1.08,13v2.24c0,5.93,1.4,9.34,4.21,10.18a1.11,1.11,0,0,0,.65.14h.65c3.69,0,6.59-5.32,8.64-16a1.07,1.07,0,0,1,.89-.52h.28c.8.19,1.26.42,1.31.66v.93a1.23,1.23,0,0,0,.14.65q0,5.75-4.06,12.8c-3.09,4.39-6.64,6.59-10.61,6.59-5,0-8.59-3.18-10.88-9.44l-.14-.79H456c-1.31,3.92-3.32,6.59-6,8.13a12.33,12.33,0,0,1-5,1.54H443.4c-3.41,0-6.26-2.24-8.64-6.77a20.39,20.39,0,0,1-1.45-8.27,197.06,197.06,0,0,1,2-22.47,1.51,1.51,0,0,1,1.3-.93C439.9,106.14,442.14,107.31,443.26,109.69Z" style="fill:red"/><path d="M484.9,104.83a5,5,0,0,1,4.86,2.9,24,24,0,0,1,1.54,6.39h.14c3.13-5.74,7.05-8.64,11.77-8.64,5.32,0,9.25,3.74,11.82,11.12a43.81,43.81,0,0,1,.74,6.17,22.44,22.44,0,0,1-7.19,17.14,11.3,11.3,0,0,1-6.91,2.89h-.42c-3.46,0-6.5-1.73-9.16-5.23-.51,8.83-1.35,15.51-2.47,20-1.5,5.84-2.76,8.73-3.79,8.73,0,.47-1,.8-2.89,1.08h-.66c-2.33,0-3.69-.52-4.06-1.59a142.93,142.93,0,0,0,4.44-36.25,85.1,85.1,0,0,0-3.13-23.16v-.14a7.48,7.48,0,0,1,4.43-1.45ZM497.46,135a4.5,4.5,0,0,0,1.68.51h.94c2.24,0,4.11-2,5.65-5.89a17.37,17.37,0,0,0,.75-5c0-4.72-1.5-8.13-4.58-10.18a3.48,3.48,0,0,0-1.68-.52h-.93c-2,0-3.79,1.73-5.38,5.23a17.5,17.5,0,0,0-1,5.61C492.89,129.4,494.43,132.81,497.46,135Z" style="fill:red"/><path d="M539.1,105.2c4,0,6.73,2.06,8.27,6.22a17.31,17.31,0,0,1,.23,2.52v.28c0,5.51-3.41,9.9-10.18,13.17a28.65,28.65,0,0,1-5.14,1.21v.28a13.78,13.78,0,0,0,3.83,10,5.33,5.33,0,0,0,3.5,1.54h.94c3.78.47,8.08-3.13,12.8-10.84a59.6,59.6,0,0,0,2.8-6.58,2.78,2.78,0,0,1,.89-.56c1.12.28,1.72.56,1.72.84v.14a34,34,0,0,1-11.07,18.26,16.22,16.22,0,0,1-10.41,3.6c-6.4,0-10.79-3.88-13.22-11.54a35.72,35.72,0,0,1-.79-7.05c0-7.94,2.8-14.39,8.36-19.43a11.74,11.74,0,0,1,5.88-2.06Zm.51,17c2-2,3-3.87,3-5.56v-.42c0-1.4-.89-2.24-2.62-2.47h-.14c-3.69,0-6.11,3-7.33,9.15a6.52,6.52,0,0,0-.28,2.2A17.09,17.09,0,0,0,539.61,122.25Z" style="fill:red"/><path d="M565.13,104.83c3.32,0,5.56,1.26,6.68,3.83a13.64,13.64,0,0,1,.8,4.3,148.38,148.38,0,0,0-1.73,15.32v1.17H571q4.2-24.31,14.53-24.34h.14c4.15,0,7,2.24,8.5,6.68.37,1.49.79,4.53,1.31,9,0,.66-1.22,1-3.65,1.17-2.8,0-4.76-1.07-5.93-3.27-1-3.41-1.73-5.09-2.2-5.09l-.79-.14c-3.64,0-6.49,5.65-8.5,16.91-.51,3.64-.89,7.71-1.07,12.14a6.22,6.22,0,0,1-3.27.66h-.52c-3.59,0-6.12-2.81-7.56-8.5a36.17,36.17,0,0,1-.94-9c0-4.06.89-10.74,2.62-20a1.6,1.6,0,0,1,1.16-.79Z" style="fill:red"/><path d="M633.44,68.17A217.76,217.76,0,0,0,643,100.35c2.57,6.21,4.72,11.11,6.54,14.8h.09a105.34,105.34,0,0,1,5.28-15.88,192,192,0,0,1,15.55-29.66q3.8-3.64,8-3.64c0-.14.47-.23,1.45-.23a5.62,5.62,0,0,1,4.62,2,121,121,0,0,0-2,23.73l.7,34.51q0,21.59-5.75,24.29a11.87,11.87,0,0,1-4.81,1.17c-2.71-.24-4-.61-4-1.17,2-6.49,3-11,3-13.64a46.33,46.33,0,0,0,.38-7.47v-1.68a3.51,3.51,0,0,1,.09-.94l-.09-.7L671,93v-.84h-.09c-5.93,6.16-10.74,17.23-14.48,33.11,3,4,4.49,6.21,4.49,6.54q0,1.54-3.93,3.08a8,8,0,0,1-2,.33q-8.69,0-19.38-22.89c-1.59-3.5-2.85-6.58-3.83-9.24h-.09v.09c.28,9.9.42,17.33.42,22.33v1.26c0,12.47-1.5,20-4.58,22.65a9.27,9.27,0,0,1-5.7,2c-2.8-.19-4.16-.56-4.16-1.17v-.14a60.41,60.41,0,0,0,3.23-18.4c.09-1.68.14-2.85.14-3.51q-1-32.85-1-36.61a85.66,85.66,0,0,1,1.68-18.92h-.09a15.21,15.21,0,0,0-5.28,6.44,28.31,28.31,0,0,0-3.36,12.34c-.1.32-.42.46-.89.46-2.34,0-4.76-1.63-7.29-4.9a8,8,0,0,1-1-3.64v-.94c0-2.75,1.58-6.26,4.81-10.46,4.11-4.3,9.48-6.45,16.16-6.45C630.54,65.5,633.44,66.39,633.44,68.17Z" style="fill:#0873bc"/><path d="M708,105.2c4,0,6.73,2.06,8.27,6.22a17.31,17.31,0,0,1,.23,2.52v.28c0,5.51-3.41,9.9-10.18,13.17a28.65,28.65,0,0,1-5.14,1.21v.28a13.78,13.78,0,0,0,3.83,10,5.33,5.33,0,0,0,3.5,1.54h.94c3.78.47,8.08-3.13,12.8-10.84A59.6,59.6,0,0,0,725,123a2.78,2.78,0,0,1,.89-.56c1.12.28,1.73.56,1.73.84v.14a34.12,34.12,0,0,1-11.08,18.26,16.2,16.2,0,0,1-10.41,3.6c-6.4,0-10.79-3.88-13.22-11.54a35.72,35.72,0,0,1-.79-7.05c0-7.94,2.8-14.39,8.36-19.43a11.74,11.74,0,0,1,5.88-2.06Zm.51,17c2-2,3-3.87,3-5.56v-.42c0-1.4-.89-2.24-2.61-2.47h-.15c-3.68,0-6.11,3-7.33,9.15a6.87,6.87,0,0,0-.28,2.2A17.09,17.09,0,0,0,708.47,122.25Z" style="fill:#0873bc"/><path d="M732.5,104.83c3,0,5,1,6.17,2.9a10.36,10.36,0,0,1,1.59,5c-.84,9.1-1.22,14.8-1.08,17l.05.23h.09q3.36-24.87,13.22-24.85h.75c3.45,0,6.21,2.06,8.36,6.17.42.65.75,2.24,1.07,4.81.1,1.54-.28,7.14-1.07,16.76l.09,2c.19,3,1.68,4.57,4.49,4.57,3.69,0,6.44-5.46,8.31-16.34a1.32,1.32,0,0,1,.75-.28h.28a1.69,1.69,0,0,1,1.35.79l.09,1.31c.28,5-1.44,10.09-5.27,15.32-2.85,2.94-6,4.43-9.39,4.43q-6.32,0-9.67-8.12a22.51,22.51,0,0,1-.79-4.3v-.51q-.07-1.55,1.12-14.16l0-.79c-.14-2.15-.84-3.27-2.15-3.27h-.14c-3.73,0-6.3,5.7-7.75,17.05a99.6,99.6,0,0,0-.61,11.77c-.28.61-.93.89-1.91.89h-1.83c-4.15,0-7-3.69-8.64-11.12-.37-2.61-.56-4.34-.6-5.09-.28-4.9.32-12,1.77-21.35a1.34,1.34,0,0,1,1.12-.79Z" style="fill:#0873bc"/><path d="M463.35,101.27a.4.4,0,0,1-.45.45c-.22,0-.55,0-1,0s-.77,0-1,0-.55,0-1,0-.77,0-1,0-.45-.19-.45-.59q0-2.3.14-6.88t.15-6.88c0-.23,0-.34-.15-.34a.28.28,0,0,0-.25.2q-.92,2-4.35,10.5c-.37,1.1-.91,2.47-1.61,4.1q-.12.24-1.29.24c-1.14,0-1.76-.11-1.88-.31-.41-1-1-2.34-1.75-4.1Q446,94.09,442.89,87a.58.58,0,0,0-.23-.25.45.45,0,0,0-.15.39q0,2.34.08,7c.06,3.11.09,5.43.09,7,0,.4-.15.59-.46.59s-.51,0-.93,0-.74,0-.94,0-.54,0-1,0-.75,0-1,0-.46-.11-.46-.34c0-1.34.07-3.34.19-6s.19-4.67.19-6-.06-3.47-.19-6.24S438,78.28,438,76.9c0-.23.14-.36.42-.4a32.09,32.09,0,0,1,3.7-.32c.12,0,.29.25.51.74q4.37,9.6,7.51,17.15a5.84,5.84,0,0,0,.88,1.77c.12,0,.38-.48.78-1.45q2.44-5.85,6.8-17.36c.18-.47.38-.71.6-.71.41,0,1,0,1.85.08s1.44.07,1.85.07.45.14.45.43c0,1.38,0,3.46-.14,6.24S463,88,463,89.38s0,3.31.15,6S463.35,100,463.35,101.27Z" style="fill:#0d97dd"/><path d="M488.29,83.2c0,.69-1.08,2.5-3.22,5.45-1.42,1.84-2.83,3.69-4.24,5.53a2.28,2.28,0,0,0-.52,1.41c0,.65,0,1.62.1,2.91s.09,2.26.09,2.9c0,.22-.15.32-.45.32h-4.29c-.24,0-.36-.17-.36-.52,0-.61,0-1.55.12-2.8s.13-2.19.13-2.81a2.42,2.42,0,0,0-.45-1.45q-1.31-1.68-3.88-5-2.2-3-3.18-4.59a2,2,0,0,1-.33-1q0-2.27,0-6.57c0-.32.14-.48.43-.48s.51,0,.91,0,.71,0,.91,0,.61,0,1.09,0,.85,0,1.1,0,.32.09.32.28c0,.68,0,1.69-.11,3s-.1,2.36-.1,3,1.9,3.26,5.72,7.62c.9-1,1.94-2.29,3.1-3.81q2.44-3.14,2.44-3.77c0-.65,0-1.64-.14-3s-.15-2.3-.15-3q0-.48.42-.48c.21,0,.55,0,1,0s.78,0,1,0,.58,0,1,0,.81,0,1,0,.43.19.43.59c0,.69,0,1.72,0,3.11S488.29,82.52,488.29,83.2Z" style="fill:#0d97dd"/><path d="M540.21,165.05a109.34,109.34,0,0,1,4.69,14.12,48.23,48.23,0,0,1,1.72,8.22,34,34,0,0,0,3.4-7.66c1.27-4.57,1.91-7.38,1.91-8.41,0,0,0-.08,0-.26-.42-.86-.94-1.79-1.55-2.81v-.2c0-.52.81-.87,2.46-1.05h0c1.62,0,3,1.17,4.2,3.52,1.37,2.21,3,6.25,4.88,12.1.79,2.76,1.19,4.27,1.19,4.51h0a48.4,48.4,0,0,0,3.92-19.87,39.73,39.73,0,0,0-1-9.71v-.2q0-.6,1-.6h.76q2.6,0,3.46,3.2a22.16,22.16,0,0,1,.34,3.94,67.57,67.57,0,0,1-3.54,21,22.69,22.69,0,0,1-3.47,6.61,4.27,4.27,0,0,1-3.5,1.61c-1.57,0-2.37-.32-2.37-.95a112.1,112.1,0,0,0-4-14.53h-.06a50,50,0,0,1-2.34,6.87,31.79,31.79,0,0,1-3.7,6.36c-1.24,1.38-2.07,2.05-2.51,2.05a5,5,0,0,1-1.61.3c-1.83-.12-2.75-.5-2.75-1.15A112.6,112.6,0,0,0,540,180.93,89.71,89.71,0,0,0,536,168a46.88,46.88,0,0,0-4.44-8.91,6.83,6.83,0,0,0-3.36,3.08,11.18,11.18,0,0,0-1.43,5c0,.14-.16.2-.38.2-1,0-2-.68-3.1-2a3.09,3.09,0,0,1-.44-1.48v-.39q0-1.65,2-4.24a9.27,9.27,0,0,1,6.88-2.63,12.7,12.7,0,0,1,2.15.14,2,2,0,0,1,.5.1,1.93,1.93,0,0,1,.85.38C537,158.3,538.58,160.89,540.21,165.05Z" style="fill:red"/><path d="M577.43,173.68a3.54,3.54,0,0,1,3.52,2.65,7.35,7.35,0,0,1,.1,1.07v.12q0,3.53-4.34,5.61a12.22,12.22,0,0,1-2.19.52v.12a5.87,5.87,0,0,0,1.64,4.26,2.24,2.24,0,0,0,1.49.66H578c1.62.19,3.45-1.34,5.46-4.62a26.82,26.82,0,0,0,1.19-2.81,1.06,1.06,0,0,1,.38-.23c.48.11.73.23.73.35v.06a14.47,14.47,0,0,1-4.71,7.78,6.88,6.88,0,0,1-4.44,1.53c-2.72,0-4.59-1.65-5.63-4.91a15,15,0,0,1-.34-3,10.66,10.66,0,0,1,3.57-8.28,5,5,0,0,1,2.5-.88Zm.22,7.27a3.65,3.65,0,0,0,1.29-2.37v-.18c0-.6-.38-1-1.11-1.06h-.06c-1.58,0-2.61,1.3-3.13,3.9a2.79,2.79,0,0,0-.12.94A7.35,7.35,0,0,0,577.65,181Z" style="fill:red"/><path d="M591.75,162.12a11.05,11.05,0,0,0-1.43,5c0,.14-.16.2-.38.2-1,0-2-.68-3.11-2a3.18,3.18,0,0,1-.43-1.48v-.4c0-1.09.67-2.5,2.05-4.23a9.25,9.25,0,0,1,6.88-2.63c2.39,0,3.64.34,3.72,1a4.59,4.59,0,0,1,.3.51,18.48,18.48,0,0,1,1,3.15,97.43,97.43,0,0,0,4.68,11.42c.9,1.73,1.67,3.18,2.35,4.34a26.23,26.23,0,0,0,2.78,4l0-.7c-.21-6.55-.31-10.61-.31-12.14V166.8a27.85,27.85,0,0,1,1-8.18,3,3,0,0,1,2.61-1.81,2.25,2.25,0,0,1,1.89.85,51.79,51.79,0,0,0-.84,10.13c0,.66.1,5.45.28,14.43,0,5.37-.56,8.67-1.65,9.93a3.54,3.54,0,0,1-2.65,1.11c-1.09-.1-1.65-.28-1.65-.56a23.53,23.53,0,0,0,1.33-6.94c-1.59,0-3.62-1.77-6.1-5.29a62.22,62.22,0,0,1-4.2-7.72,25.47,25.47,0,0,1-1.26-2.81h0V170c.18,7.54.28,11.5.28,11.92q0,9.44-2.15,10.69a4,4,0,0,1-2.15.65c-1.09-.1-1.65-.26-1.65-.5a27.65,27.65,0,0,0,1.38-8.29v-.9q0-1.55-.42-15.82a36.42,36.42,0,0,1,.75-8.15A4.94,4.94,0,0,0,591.75,162.12Z" style="fill:red"/><path d="M622.86,173.68a3.54,3.54,0,0,1,3.52,2.65,7.35,7.35,0,0,1,.1,1.07v.12c0,2.35-1.45,4.22-4.33,5.61a12.44,12.44,0,0,1-2.19.52v.12a5.9,5.9,0,0,0,1.63,4.26,2.26,2.26,0,0,0,1.49.66h.4c1.61.19,3.44-1.34,5.45-4.62a25.21,25.21,0,0,0,1.2-2.81,1,1,0,0,1,.37-.23c.48.11.74.23.74.35v.06a14.55,14.55,0,0,1-4.72,7.78,6.85,6.85,0,0,1-4.43,1.53c-2.73,0-4.6-1.65-5.63-4.91a15,15,0,0,1-.34-3,10.65,10.65,0,0,1,3.56-8.28,5,5,0,0,1,2.51-.88Zm.22,7.27a3.62,3.62,0,0,0,1.3-2.37v-.18c0-.6-.38-1-1.12-1.06h-.06q-2.36,0-3.12,3.9a2.79,2.79,0,0,0-.12.94A7.32,7.32,0,0,0,623.08,181Z" style="fill:red"/><path d="M634.18,175.59a5.75,5.75,0,0,1,.44,1.67c0,.68-.06,1.26-.06,1.73v2c0,3.71.6,5.91,1.81,6.63l.12.06v-.12l-.18-1.77q0-3.59,3.94-11.66a.75.75,0,0,1,.68-.44c1.37.44,2.05,1.18,2.05,2.17s-.82,2.61-2.49,4.8a14.77,14.77,0,0,0-2,7.58c-.14,1.23-.74,1.85-1.83,1.85h-.3a5.65,5.65,0,0,1-4.3-2.25c-1.41-2.07-2.13-5.13-2.13-9.19v-3.41c0-1.11.2-1.67.6-1.67h.38A3.22,3.22,0,0,1,634.18,175.59Z" style="fill:red"/><path d="M649.5,173.68a3.54,3.54,0,0,1,3.52,2.65,7.35,7.35,0,0,1,.1,1.07v.12q0,3.53-4.34,5.61a12.22,12.22,0,0,1-2.19.52v.12a5.87,5.87,0,0,0,1.64,4.26,2.24,2.24,0,0,0,1.49.66h.4c1.61.19,3.44-1.34,5.45-4.62a24.82,24.82,0,0,0,1.19-2.81,1.06,1.06,0,0,1,.38-.23c.48.11.74.23.74.35v.06a14.55,14.55,0,0,1-4.72,7.78,6.88,6.88,0,0,1-4.44,1.53c-2.72,0-4.59-1.65-5.63-4.91a15,15,0,0,1-.34-3,10.66,10.66,0,0,1,3.57-8.28,5,5,0,0,1,2.5-.88Zm.22,7.27a3.65,3.65,0,0,0,1.29-2.37v-.18c0-.6-.38-1-1.11-1.06h-.06c-1.58,0-2.61,1.3-3.13,3.9a2.79,2.79,0,0,0-.12.94A7.35,7.35,0,0,0,649.72,181Z" style="fill:red"/><path d="M658.55,173.52a2.78,2.78,0,0,1,2.84,1.64,5.8,5.8,0,0,1,.34,1.83,62,62,0,0,0-.73,6.52v.5h.06c1.19-6.9,3.26-10.37,6.18-10.37h.06a3.64,3.64,0,0,1,3.62,2.85,37.64,37.64,0,0,1,.56,3.84c0,.28-.52.44-1.55.5a2.62,2.62,0,0,1-2.53-1.4c-.41-1.45-.73-2.17-.93-2.17l-.34-.06c-1.55,0-2.77,2.41-3.62,7.21-.22,1.55-.38,3.28-.46,5.17a2.65,2.65,0,0,1-1.39.28h-.22c-1.53,0-2.61-1.19-3.23-3.62a16,16,0,0,1-.39-3.84,54.44,54.44,0,0,1,1.11-8.54.69.69,0,0,1,.5-.34Z" style="fill:red"/><path d="M699.53,158.16A7.77,7.77,0,0,1,703,165a4.8,4.8,0,0,1-.57,2.68,3.82,3.82,0,0,1-2.27,1.64,6.06,6.06,0,0,1-1.16.17,3,3,0,0,1-1.75-.45,4.69,4.69,0,0,0,1-3.43,6.34,6.34,0,0,0-2-5.09,4.18,4.18,0,0,0-2.51-.89h-.24a4.73,4.73,0,0,0-3.54,1.75,5.45,5.45,0,0,0-.88,1.45,7,7,0,0,0-.51,2.41c0,2.09,1.59,4.21,4.73,6.36.52.38,1.73,1.2,3.6,2.47a31.9,31.9,0,0,1,3.27,2.55,12.42,12.42,0,0,1,1.83,2,8.1,8.1,0,0,1,1.51,3.54,6.28,6.28,0,0,1,.12,1.09.55.55,0,0,0,0,.18v.18q0,4-4.34,7.1a12.09,12.09,0,0,1-3.06,1.5,14,14,0,0,1-4.38.77h-.5a13.89,13.89,0,0,1-4.77-.91,9.48,9.48,0,0,1-4.94-4.72,10,10,0,0,1-.91-4.1,7.47,7.47,0,0,1,2.57-6.09,5.54,5.54,0,0,1,3.34-1.21h.08a4.44,4.44,0,0,1,2.72.9,2.59,2.59,0,0,1,.86,1.93v.31a1.92,1.92,0,0,1-.5,1.38l-.1,0a3,3,0,0,0-.93-.18h-.26a3,3,0,0,0-2.53,1.67,5.37,5.37,0,0,0-.58,2.43,5.49,5.49,0,0,0,1.81,4.08,6.22,6.22,0,0,0,4.24,1.51,6.61,6.61,0,0,0,4.36-1.49,5.76,5.76,0,0,0,1.63-2.91,5.14,5.14,0,0,0,.16-1.19v-.24a5.87,5.87,0,0,0-2.71-4.72c-.85-.67-2.24-1.63-4.17-2.9a29.68,29.68,0,0,1-3.07-2.39,10.58,10.58,0,0,1-3.78-8.06,8.82,8.82,0,0,1,3.07-6.76,11,11,0,0,1,7.3-2.61A10.47,10.47,0,0,1,699.53,158.16Z" style="fill:red"/><path d="M707.48,166.84c.78,0,1.38.65,1.77,2a4.32,4.32,0,0,1,.18,1.13c-.41,5.06-.61,8.62-.61,10.73v.85c0,4.5.77,6.75,2.35,6.75h0c1.55,0,2.82-2.27,3.79-6.81,0-.12.1-.24.28-.34h.16c.46,0,.68.24.68.74a12.36,12.36,0,0,1-2.39,6.57,5.69,5.69,0,0,1-4,2c-2.23,0-3.74-1.79-4.51-5.34a12.26,12.26,0,0,1-.34-3v-2.49a111.13,111.13,0,0,1,.77-12.47,1.09,1.09,0,0,1,.9-.34Z" style="fill:red"/><path d="M722,173.68a3.54,3.54,0,0,1,3.52,2.65,7.35,7.35,0,0,1,.1,1.07v.12q0,3.53-4.34,5.61a12.22,12.22,0,0,1-2.19.52v.12a5.9,5.9,0,0,0,1.63,4.26,2.28,2.28,0,0,0,1.5.66h.39c1.62.19,3.45-1.34,5.46-4.62a26.82,26.82,0,0,0,1.19-2.81,1.06,1.06,0,0,1,.38-.23c.48.11.73.23.73.35v.06a14.47,14.47,0,0,1-4.71,7.78,6.88,6.88,0,0,1-4.44,1.53c-2.72,0-4.6-1.65-5.63-4.91a15,15,0,0,1-.34-3,10.68,10.68,0,0,1,3.56-8.28,5,5,0,0,1,2.51-.88Zm.22,7.27a3.65,3.65,0,0,0,1.29-2.37v-.18c0-.6-.38-1-1.12-1.06h-.05c-1.58,0-2.61,1.3-3.13,3.9a2.79,2.79,0,0,0-.12.94A7.35,7.35,0,0,0,722.17,181Z" style="fill:red"/><path d="M735.51,173.68a3.55,3.55,0,0,1,3.53,2.65,8.89,8.89,0,0,1,.09,1.07v.12c0,2.35-1.45,4.22-4.33,5.61a12.44,12.44,0,0,1-2.19.52v.12a5.9,5.9,0,0,0,1.63,4.26,2.26,2.26,0,0,0,1.49.66h.4c1.61.19,3.44-1.34,5.45-4.62a25.21,25.21,0,0,0,1.2-2.81,1,1,0,0,1,.37-.23c.48.11.74.23.74.35v.06a14.55,14.55,0,0,1-4.72,7.78,6.85,6.85,0,0,1-4.43,1.53c-2.73,0-4.6-1.65-5.63-4.91a15,15,0,0,1-.34-3,10.65,10.65,0,0,1,3.56-8.28,5,5,0,0,1,2.51-.88Zm.22,7.27a3.62,3.62,0,0,0,1.3-2.37v-.18c0-.6-.38-1-1.12-1.06h-.06c-1.57,0-2.6,1.3-3.12,3.9a2.79,2.79,0,0,0-.12.94A7.32,7.32,0,0,0,735.73,181Z" style="fill:red"/><path d="M743.15,173.52a2.12,2.12,0,0,1,2.07,1.24,9.94,9.94,0,0,1,.66,2.72h.06c1.33-2.44,3-3.68,5-3.68,2.27,0,3.94,1.59,5,4.74a18,18,0,0,1,.32,2.62,9.56,9.56,0,0,1-3.06,7.31,4.85,4.85,0,0,1-3,1.23h-.18a4.87,4.87,0,0,1-3.9-2.23,49.11,49.11,0,0,1-1.05,8.54c-.64,2.48-1.17,3.72-1.61,3.72,0,.2-.42.34-1.24.46H742c-1,0-1.58-.22-1.74-.68a60.65,60.65,0,0,0,1.9-15.44,36.06,36.06,0,0,0-1.34-9.87v-.06a3.21,3.21,0,0,1,1.89-.62Zm5.35,12.84a1.89,1.89,0,0,0,.72.22h.4c1,0,1.75-.84,2.4-2.51a7.34,7.34,0,0,0,.32-2.13,4.82,4.82,0,0,0-2-4.34,1.49,1.49,0,0,0-.71-.22h-.4c-.86,0-1.61.74-2.29,2.23a7.42,7.42,0,0,0-.44,2.39A5,5,0,0,0,748.5,186.36Z" style="fill:red"/><path d="M764.4,191.29a2.67,2.67,0,0,1,.2,1.08,2.76,2.76,0,0,1-1.85,2.54,2.54,2.54,0,0,1-.74.14h-.44a2.74,2.74,0,0,1-2.43-1.91,4,4,0,0,1-.1-.71v-.26c0-1.26.76-2.13,2.25-2.63l.58,0A2.8,2.8,0,0,1,764.4,191.29ZM764,158.82c1.07.18,1.61.48,1.61.91v.06a41.07,41.07,0,0,0-.68,7.74c0,.8.16,4.86.48,12.22,0,4.24-.73,6.75-2.23,7.56a3.61,3.61,0,0,1-1.51.38h-.44c-.85-.08-1.27-.24-1.27-.48a27.07,27.07,0,0,0,1.21-7.16v-1c0-.91-.2-4.33-.57-10.26a15.36,15.36,0,0,1-.06-1.77,16.67,16.67,0,0,1,1.13-6.91,2.68,2.68,0,0,1,2-1.31Z" style="fill:red"/><polygon points="315.88 62.74 258.17 137.76 201.01 212.03 143.85 137.76 86.14 62.74 100.77 35.58 119.58 0.73 282.44 0.73 301.25 35.58 315.88 62.74" style="fill:#ffe63a;stroke:#000;stroke-miterlimit:10;stroke-width:0.042768233842115px"/><path d="M250.86,62.74l0-.05.11.09A.15.15,0,0,1,250.86,62.74Z" style="fill:#fac208"/><path d="M238.52,70.25c-.06,0,0-.11,0-.17v.16Z" style="fill:#fbcb06"/><path d="M0,46.1c10.58-2.65,24.12-5.76,40-8.69a648.43,648.43,0,0,1,68-8.95A612.6,612.6,0,0,1,223.23,31s-10.65,3.18-10.47,6c0,0-5.79-.74-18.69,7.11,0,0-15.33-.56-21.31,2.24,0,0-18.32,9.53-21.69,16.64L136.68,78.82s-2.8,9.16,3,12.33l-64.12,9S111.44,84.42,89,74c0,0-37.39-10.1-48.6-7.48C61.69,59.17,65.28,55.1,65,52.79c-.44-3.27-9-5-16.7-6.57a101.94,101.94,0,0,0-20.84-1.87A205,205,0,0,0,0,46.1Z" style="fill:#f11712;stroke:#000;stroke-miterlimit:10;stroke-width:0.25px"/><path d="M87.7,69.77S111,77.62,95.83,90l122-48.23Z" style="fill:#bb070e"/><path d="M50,46.38l170.5-13.5L43.42,65.78c2.87-.93,22.79-7.49,22.06-13.09C65,49,55.47,47.14,50,46.38Z" style="fill:#bb070e"/><path d="M395.93,55.16A29.57,29.57,0,0,0,392,57.35c-2.58,1.69-3.18,2.66-4.86,3.38a10.22,10.22,0,0,1-6.29.34s-7.17,7.39-13.52,6.19A18,18,0,0,1,361.1,66a8.61,8.61,0,0,0,1.58-2.24c1.19-2.42,1.68-6.4-4.66-10h0a147.82,147.82,0,0,1,21.88-1.37s16.52-1,18.7-.28C398.61,52.15,401.41,53.4,395.93,55.16Z" style="fill:#faab73;stroke:#000;stroke-miterlimit:10;stroke-width:0.75px"/><path d="M261,42.45s-1.4,1.51-8.6,1c0,0-2.05,1.17,1.22,6.31s14.39,19,18.5,21.41c0,0,3.28,2.89,2.34-1.5,0,0,1.31-7.2,3.65-7.1,0,0,2.24-2.06,3.36-2.06,0,0,2.77-1.56,8.91-1.06,0,0,4.41-.64,3.39-3.07,0,0-.31-.86-.55-1a15.77,15.77,0,0,1,.53-5.73l.48-2.44s4.38.57,3.5-1.86a14.16,14.16,0,0,0-1.58-3.74l-1.06-2.12,1.55-2.21s.19-3.58-2.08-4.58c0,0-2.46-1.49-8.51-.84a9.33,9.33,0,0,0-8.88,4.3s.56-4.95-3.36-4.67c0,0-3.4-.25-2.43,5.7C271.34,37.28,268.78,39.82,261,42.45Z" style="fill:#faab73;stroke:#000;stroke-miterlimit:10;stroke-width:0.957643806934357px"/><path d="M287,35.13h0s5-1.36,6.3.28c0,0,.33-.75-.09-1,0,0,.34,0,.48.84a2.26,2.26,0,0,0,.16-.64s.17.21.17,1-.47.75-.47.75S288.25,35,287,35.13Z" style="fill:#5d250f;stroke:#000;stroke-miterlimit:10;stroke-width:0.119705475866795px"/><path d="M291.61,45.15a2.63,2.63,0,0,1,1-.41,3.67,3.67,0,0,1,1.05,0,2.63,2.63,0,0,1,1,.41,1.65,1.65,0,0,1,.39.44,1,1,0,0,1,.12.55l0,0a1.84,1.84,0,0,0-1.58-.95,6.71,6.71,0,0,0-1.95,0Z"/><path d="M289.47,48a2.9,2.9,0,0,1,1.12-.14,5.31,5.31,0,0,1,1.1.2,3.81,3.81,0,0,1,1,.56,1.52,1.52,0,0,1,.59,1l0,0a2.82,2.82,0,0,0-1.7-1.16,10.26,10.26,0,0,0-2.06-.47Z"/><path d="M290.92,51.13a3.46,3.46,0,0,1,.77-.1,3.71,3.71,0,0,1,.75,0l.28,0,0,.31c0,.22.07.45.08.67v.68c0,.23-.07.46-.09.69a3.59,3.59,0,0,1-.2.69h0c-.05-.9-.12-1.81-.15-2.71l0,0-1.45-.3Z"/><path d="M220,68.18l-26.4,8.23L155.47,89.12l1.74-18.69L195.6,59.34l15.33,3Z" style="fill:#f11712;stroke:#000;stroke-miterlimit:10;stroke-width:0.25px"/><path d="M275.22,43.08a13.3,13.3,0,0,0,.45,2.47,9.47,9.47,0,0,0,.87,2.24,9.38,9.38,0,0,0,3,3.42l1,.62,1.08.48c.19.08.36.18.55.25l.57.17c.39.11.77.24,1.16.38.8.18,1.61.36,2.43.52s1.66.23,2.52.42v.1l-2.55,0c-.85-.07-1.69-.18-2.54-.29A13.07,13.07,0,0,1,279.05,52a9,9,0,0,1-3.2-3.93,10.23,10.23,0,0,1-.73-5Z"/><path d="M281.53,93.16h0c-.07.91-.16,1.84-.28,2.81l0,0s-.06.12-.12.23a28.28,28.28,0,0,1-1.78,2.84l-.25.36c-2.89,4-8.6,10.23-16.8,11.21l0,0c-.51.44-9.08,7.78-18.58,8.59a18.53,18.53,0,0,1-4.27-.12l-.06,0-.09,0c-1.1.5-8.09,3.58-11.82,3.83h-.06a5.23,5.23,0,0,1-1,0l0,0-.08,0h0c-1,.58-7.95,4.38-12.27,4a.32.32,0,0,1,0-.06l0-.06s0,0,0,0,0,0,0-.06a.76.76,0,0,0,0-.11h0c-.09-.29-.24-.74-.45-1.34l0-.11a78.07,78.07,0,0,0-6.46-14.43.08.08,0,0,1,0,0,19.31,19.31,0,0,0-4.8-5.63h0a7.28,7.28,0,0,0-1.09-.65l-.06,0-.09,0-.64-.39-.26-.14-.48-.28a54.52,54.52,0,0,0-11-4.61h0l-.28-.07h0l-1.41-.35h0l-.07,0h0c-4.15-.94-8.52-1.12-12.1.6,0,0-12.32,3.62-13.71,13.87a0,0,0,0,0,0,0,15.48,15.48,0,0,0-.11,1.56h0v0a0,0,0,0,0,0,0,.54.54,0,0,0,0-.1,14.28,14.28,0,0,1-.62-3.09v-.09c-.31-3.53.38-9.24,6.55-13.88l0,0a24.93,24.93,0,0,1,2.21-1.47s.47-.24,1.28-.61h0c.74-.34,1.75-.81,2.93-1.31l.13,0c1.5-.64,3.24-1.34,5-1.94,1.22-.41,2.44-.78,3.6-1l0,0a16.43,16.43,0,0,1,3.56-.49l.7-.21h0c.66-.19,1.76-.52,3.06-.93h0a66.34,66.34,0,0,0,10.09-4l.05,0c1.37-.75,2.32-1.48,2.45-2.13,0,0,0,0,0,0s2-3.49,4.18-8.22a100.1,100.1,0,0,0,4.11-10l.12,0,.18,0c2.28-.38,16.73-3.05,18.41-9.85,0-.13.06-.25.08-.37a5,5,0,0,0,.08-1h9.54s6.93-3.79,7.93-9.33c0,0,0,0,0-.07a10.28,10.28,0,0,0-1.69-7.27l0-.06c-.18-.3-.39-.6-.6-.9h0a10.09,10.09,0,0,1,4.55.58h0a19.88,19.88,0,0,1,8.51,6,3.57,3.57,0,0,1-2,.88h0a7.55,7.55,0,0,1-2.52,0,2.35,2.35,0,0,0-1,1.94c-.06,1.24.53,3.18,3,6a.69.69,0,0,1,.11.13h0c5.17,6.06,8.87,11.7,10.47,12.82l7.07,6.94h0l.29.28a.57.57,0,0,0,.27.1h0c.36,0,1-.19,1.51-1.93h0a15.5,15.5,0,0,0,.42-2.17h0c0-.12,0-.23,0-.36h0l0,0h0c.4.35,3.3,3,5.17,9.28a0,0,0,0,0,0,0h0A45,45,0,0,1,281.53,93.16Z" style="fill:#f11712;stroke:#000;stroke-miterlimit:10;stroke-width:0.25px"/><path d="M162.51,120.09s-7-10.34,7.6-19.19a22.36,22.36,0,0,1,5.52-2.37,22.93,22.93,0,0,1,11.8,0,44.86,44.86,0,0,1,5.18,1.5,43.8,43.8,0,0,1,7.91,3.75,37.75,37.75,0,0,1,11.09,16.08l2.37,7.23s-1.43,2.24-.78,7.41c0,0,.28,2.81-1.22,3.93l-.37,7.73s1.28,6.6-10.14,7.41l-14-2s5.79-11.31.06-22.4C187.56,129.19,181.45,112.61,162.51,120.09Z" style="stroke:#000;stroke-miterlimit:10;stroke-width:0.25px;fill:url(#linear-gradient)"/><path d="M187.5,151.59q-6.25-.81-12.84-1.47-9-.87-17.45-1.33s-18.32-1.59-22.34-.94c-1.4.32-2.86.69-4.36,1.14a67.59,67.59,0,0,0-11.81,4.75s-14.39,8-17.76,7.85-1.35-7.48-1.35-7.48,3.6-12.29,12.66-15.51a16.21,16.21,0,0,1,4.52-.81s3.2-.78,3.94-3.45c0,0,5.56-9.34,9.63-9.53,0,0,2.7-1.42,6.37,5.62,0,0,3.54,2,10.22-.81,0,0,4.67-2.05,6.36-4,0,0,11-8.86,18.75-7.49,0,0,8.6-1.12,14.77,9.53C186.81,127.69,193.48,137.85,187.5,151.59Z" style="fill:#f11712;stroke:#000;stroke-miterlimit:10;stroke-width:0.25px"/><path d="M106.93,159.6s15.57,2.36,14.95,18.69c0,0,11.84-5.61,16.33-7.35,0,0,8.88,1.52,12.58-5,0,0,27.92.59,36.71-14.36,0,0-46.46-4.49-52.63-3.74S106.93,159.6,106.93,159.6Z" style="stroke:#000;stroke-miterlimit:10;stroke-width:0.25px;fill:url(#linear-gradient-2)"/><path d="M98.73,158.29a14.43,14.43,0,0,0-4,1.75c-5.26,3.31-6.76,9.05-7.14,10.8,0,0-2.43,5-23.65,18.42a19.56,19.56,0,0,0-3.31-2.19c-2-1-4.36-2.28-6.78-1.69a6.9,6.9,0,0,0-3.52,2.43c-3.72,4.16-5.32,9.71-6,12.94,0,0-.84,3.37-6.54,10,0,0-7.35,16.89,1.37,19.76,0,0,1.75,1.56,7.67-8.35,0,0,21.15-16.55,27-19.35s48.13-24.52,48.13-24.52,1.25-15.7-14.95-18.69c-2.4,1.78-5.19,2-6.84.74A3.93,3.93,0,0,1,98.73,158.29Z" style="fill:#f11712;stroke:#000;stroke-miterlimit:10;stroke-width:0.25px"/><path d="M180.08,91.3a26,26,0,0,1,16.45,2,26.6,26.6,0,0,1,10,9c6.63,9.09,7.32,19.08,7.29,23.93a43.07,43.07,0,0,0-13.18-21.68,44.45,44.45,0,0,0-4.37-2.62,42.33,42.33,0,0,0-8.81-3.39,23,23,0,0,0-3.57-.67,23.41,23.41,0,0,0-7.89.5s-15.39,4.61-15.21,16.27c0,0-3.17-7.73,2.68-14.21C163.44,100.4,165.81,95.85,180.08,91.3Z" style="fill:#ffe63a;stroke:#000;stroke-miterlimit:10;stroke-width:0.042768233842115px"/><path d="M245.45,115.48c-1.78.24-3.57.21-5.31.34a8.49,8.49,0,0,0-1.23.17l-1.27.37c-.86.24-1.7.48-2.54.75a13.2,13.2,0,0,0-2.38.91l-.22.15-.23.19a2.15,2.15,0,0,1-.71.4,7,7,0,0,1-1.37.34,17,17,0,0,1-5.37-.07,23.47,23.47,0,0,0,2.65-.22,24.39,24.39,0,0,0,2.58-.45,7.2,7.2,0,0,0,1.19-.38,1.22,1.22,0,0,0,.43-.26l.27-.25c.11-.09.21-.15.32-.23a13.55,13.55,0,0,1,2.56-1c.86-.26,1.72-.49,2.58-.7l1.31-.31a6.84,6.84,0,0,1,1.4-.1C241.92,115.07,243.68,115.35,245.45,115.48Z"/><path d="M236.58,107.93a4,4,0,0,1,.82,1.52,5.44,5.44,0,0,1,.21,1.66,4.64,4.64,0,0,1-.37,1.66,2.74,2.74,0,0,1-1.16,1.36l-.08,0a6.46,6.46,0,0,0,.65-3,16.28,16.28,0,0,0-.16-3.12Z"/><path d="M236.53,53.92h0c0,.06,0,.46,0,1v0c0,.7,0,1.65-.11,2.57a0,0,0,0,1,0,0,11.13,11.13,0,0,1-.48,3.11,7.63,7.63,0,0,0-1,4.17,5.78,5.78,0,0,0,.62,2.12s-4,7-4,8.23c0,0-.56-7.11.91-10.18-1.33,2.24-5.54,9.5-5.77,12.37,0,0-1.17-7.38,0-10.61a21.25,21.25,0,0,0-5.14,11.45s-1.59-7.1-.56-10.37l-18.52,15.2c1.2-2.71,2.4-5.44,3.62-8.17l1.67-3.75L210.12,65l.12,0h.08l.1,0c2.28-.35,16.73-2.85,18.41-9.85,0-.13.06-.25.08-.37a6,6,0,0,0,.08-1h.1Z" style="fill:#bb070e"/><path d="M289.81,37.26a2.1,2.1,0,0,1,1,.51,2.4,2.4,0,0,1,.66,1,1.88,1.88,0,0,1-.1,1.26,2.18,2.18,0,0,1-.35.49,2.56,2.56,0,0,1-.48.33l0,0a2.46,2.46,0,0,0,.5-.89,1.66,1.66,0,0,0,0-1,3.15,3.15,0,0,0-1.25-1.61Z"/><path d="M161.74,84.13a6,6,0,0,1-1.1,3.5s-.72,4.33-2,5.26a17.14,17.14,0,0,1-2.69,1.75,6.77,6.77,0,0,1-1.3.54,3.22,3.22,0,0,1-.77.14l-.39.57-.23.33,0,0,0,0c-.23.32-1.36,1.59-3.57-.31l0,0-.1-.12a2.17,2.17,0,0,0-.4-.3h0a3.36,3.36,0,0,0-2.6-.1,6.07,6.07,0,0,0-.72.24,26.39,26.39,0,0,1-3.17-1.74c-2.68-1.7-6.3-4.6-7.74-8.47h0c-1-2.66,1.23-6.8,4.18-10.76l0,0a94.05,94.05,0,0,1,10-11l.12,0,.06,0,.19.09c1.46.66,6.93,3.46,9.1,9.32a7.76,7.76,0,0,0,2.68,8.66A5.69,5.69,0,0,1,161.74,84.13Z" style="fill:#faab73;stroke:#000;stroke-miterlimit:10;stroke-width:0.957643806934357px"/><path d="M156.46,86.44a5.18,5.18,0,0,1,.67,3.4,5.74,5.74,0,0,1-1.61,3.26,7.45,7.45,0,0,1-3.09,1.76,14.26,14.26,0,0,1-1.69.3,15.91,15.91,0,0,1-1.7-.06V95l1.58-.34c.52-.16,1-.33,1.54-.51a8.14,8.14,0,0,0,2.69-1.74,5.79,5.79,0,0,0,1.56-2.75,6.54,6.54,0,0,0,0-3.2Z"/><path d="M154.74,79.81a6.39,6.39,0,0,1,.4,2.27,4.79,4.79,0,0,1-.14,1.21,1.66,1.66,0,0,1-.47.86l-.08.07,0,0h0a.35.35,0,0,0,.09-.07c.06-.09.06-.08.06-.08s0,0,0,.07a12.73,12.73,0,0,0-.13,1.89l0,1a5.7,5.7,0,0,0,0,1.09l-.08.06a5.8,5.8,0,0,1-.66-2.09,7,7,0,0,1-.07-2.2.87.87,0,0,1,.28-.52,1.17,1.17,0,0,0,.23-.43,7.6,7.6,0,0,0,.24-1.05c.12-.71.2-1.44.25-2.16Z"/><path d="M148.29,85.12c.5.84,1,1.63,1.41,2.42s.88,1.54,1.37,2.23a7.39,7.39,0,0,0,1.62,1.8,5.41,5.41,0,0,0,2.36,1l0,.1a4.26,4.26,0,0,1-2.74-.43,6,6,0,0,1-2-1.92,15,15,0,0,1-2.1-5.17Z"/><path d="M144.07,85.48a10,10,0,0,1,4.4,6.54l-.08.06-2.24-3.25L144,85.53Z"/><path d="M140.61,86.32a10.77,10.77,0,0,1,3.31,3,10.92,10.92,0,0,1,2,4l-.08.05-2.7-3.42-2.62-3.49Z"/><path d="M375.09,54.69l4-.08,2-.09c.33,0,.66,0,1-.08a1.65,1.65,0,0,0,.43-.08l.44-.2a19.44,19.44,0,0,1,3.84-1.47,4.34,4.34,0,0,1,1.09-.11,1.44,1.44,0,0,1,1.55,1.74,4.49,4.49,0,0,1-.26,1.08v0l0,0a4.34,4.34,0,0,1-.81.88,7.19,7.19,0,0,1-.94.61,8.55,8.55,0,0,1-2,.77l.1,0c-.72.36-1.43.76-2.11,1.18a11.18,11.18,0,0,0-1,.66,2.69,2.69,0,0,0-.72.71l-.09.16-.14.06a65.43,65.43,0,0,1-8.13,2.88,35.8,35.8,0,0,1-4.23.92,12.35,12.35,0,0,1-4.33,0h0l-2.21-.94,2.28.73h0a13.52,13.52,0,0,0,4.2-.33,38.9,38.9,0,0,0,4.11-1.1c2.7-.89,5.38-1.87,8-3l-.23.22a3.48,3.48,0,0,1,1-1.06c.35-.27.7-.5,1.06-.73a24.61,24.61,0,0,1,2.2-1.21l.05,0h.05a7.92,7.92,0,0,0,1.84-.66,5.16,5.16,0,0,0,.8-.51,2.73,2.73,0,0,0,.61-.62l0,.07c.22-.57.34-1.26.12-1.51s-.94-.25-1.54-.14a18.51,18.51,0,0,0-3.75,1.24l-.49.19a2.41,2.41,0,0,1-.56.09c-.35,0-.69,0-1,0-.68,0-1.35,0-2-.06C377.77,54.9,376.43,54.82,375.09,54.69Z"/><path d="M246.47,44.33s0,.05,0,.07c-.86,5.77-7.05,8.91-7.84,9.29h0l-.05,0a8.85,8.85,0,0,1-2,.19h-.09c-2.64.06-6.7-.16-7.35-.2H229c.27,8.24-16.6,10.89-18.67,11.19h-.08l-.12,0c-4.68-.25-15-2.93-15-2.93-.25,1.61-8.29,4.79-8.29,4.79-7.23,5.11-28.35,6.3-28.35,6.3-2-5.87-7.61-8.67-9.1-9.32l-.19-.09-.06,0-.12,0,3.49-3.36A113.21,113.21,0,0,1,161.22,53,65.65,65.65,0,0,1,174.15,45l.17-.07h0l.22-.09.26-.1.13-.06h.15c9.52-2.26,15.45-.28,15.93-.11h0l.85-.54.33-.2.29-.18c13.65-8.43,18.72-7.18,18.72-7.18a.39.39,0,0,1,.1-.08,34.1,34.1,0,0,1,6.45-4l.13-.07.64-.31h0l.66-.31.44-.2c2.1-.94,3.62-1.47,3.62-1.47,5.69-1.5,8-.13,8-.13l.18,0h.07l.14,0h0c7.54.8,11.08,4.31,12.45,6.19a7.68,7.68,0,0,1,.59.9l0,.06.11.22A11.15,11.15,0,0,1,246.47,44.33Z" style="fill:#f11712;stroke:#000;stroke-miterlimit:10;stroke-width:0.25px"/><path d="M239.46,51.7A45,45,0,0,1,220.9,48a2.23,2.23,0,0,0,2.24,3s-.25,8.22-14.83,7.72c0,0-7.6,2-9.85-1.24s5.61-10.22,10.35-10.85a13.43,13.43,0,0,0-10,4.24s-3.37,5.36-3,6.61c0,0-4.62,5.85-21.56,9a67.15,67.15,0,0,1-9,2.12A37.42,37.42,0,0,0,182,68a37.84,37.84,0,0,0,5.87-2.11,38.43,38.43,0,0,0,7.34-4.4l3.71.81c1.89.4,3.77.8,5.64,1.18a18.17,18.17,0,0,0,5.17.81,22.79,22.79,0,0,0,8.48-1.81A40.29,40.29,0,0,0,224,59.93a7,7,0,0,0,3.68-3.34,6.77,6.77,0,0,0,.65-3.57c1.21.11,2.32.18,3.3.23,1.14.06.74,0,2.56.08,0,0,.83,0,3.29,0a2.63,2.63,0,0,0,.77-.12,3.14,3.14,0,0,0,.64-.27,1.08,1.08,0,0,0,.56-1.21Z" style="fill:#bb070e"/><path d="M229.39,53.47a5.23,5.23,0,0,1-1.26-.13c-.41-.08-.8-.22-1.19-.33s-.77-.31-1.13-.51a5.54,5.54,0,0,1-1.05-.71l0,0c1.55.54,3.1,1.1,4.63,1.69Z"/><path d="M223.75,80.76s13.92-2.06,19.06,6l.63,1.31a55.32,55.32,0,0,0-19.69-7.29Z" style="fill:#bb070e"/><path d="M223,80.72a19.09,19.09,0,0,1,2.9-.58,29.53,29.53,0,0,1,3-.15,21.37,21.37,0,0,1,5.93.81,16.2,16.2,0,0,1,5.42,2.73,14.59,14.59,0,0,1,2.08,2.23,11.7,11.7,0,0,1,1.37,2.65l-.08,0a13.5,13.5,0,0,0-3.81-4.32,18.1,18.1,0,0,0-5.24-2.42,27,27,0,0,0-5.72-1,32.23,32.23,0,0,0-5.81.09Z"/><path d="M280.68,80.55c.32,1.74.49,3.22.6,4.33a48,48,0,0,1,.15,6.42,11.6,11.6,0,0,1-.34,3,8.7,8.7,0,0,1-2.41,3.8s-4.6,6.83-10.12,5.52a30.52,30.52,0,0,1-9.9-6.92c-4.3-4.67-14.3-20.56-14.3-20.56s-4.58-4.67-7.2-7.29a8.79,8.79,0,0,1-2.43-6.92s1.59-2.05,1.59-3.46,4.3,2.15,4.3,2.15,18.78,23.46,21.31,31.13,11.12,6.45,11.12,6.45a13.84,13.84,0,0,0,7.54-12.56Z" style="fill:#bb070e"/><path d="M281.28,94.42a21.61,21.61,0,0,1-4.16,6.15,10.78,10.78,0,0,1-6.64,3.55,7.66,7.66,0,0,1-3.81-.71,18.53,18.53,0,0,1-3.16-2.07,22.06,22.06,0,0,1-5.29-5.18A15.49,15.49,0,0,0,261,98.61c1,.74,2,1.45,3,2.13a21.67,21.67,0,0,0,3.09,1.84,6.68,6.68,0,0,0,3.37.58,10.87,10.87,0,0,0,6.21-3.12,23.16,23.16,0,0,0,2.49-2.65A29,29,0,0,0,281.28,94.42Z"/><path d="M236.41,53.67a14.54,14.54,0,0,1,.09,5,11.28,11.28,0,0,1-.67,2.45,5.69,5.69,0,0,0-.4,1.1,5.41,5.41,0,0,0-.17,1.14,7.08,7.08,0,0,0,1.38,4.34A14.69,14.69,0,0,0,240,71l0,0h0a28.26,28.26,0,0,1,3.64,3.86,15.46,15.46,0,0,1,2.57,4.58,16.64,16.64,0,0,0-1.37-2.21c-.52-.69-1.07-1.36-1.64-2a36.91,36.91,0,0,0-3.75-3.55l0,0a14.35,14.35,0,0,1-3.66-3.51,7.56,7.56,0,0,1-1.45-4.94,6.47,6.47,0,0,1,.24-1.3,6.76,6.76,0,0,1,.52-1.18,10.26,10.26,0,0,0,.79-2.26A18.74,18.74,0,0,0,236.41,53.67Z"/><path d="M362.68,63.42a9.54,9.54,0,0,1-1.58,2.46h0c-1.84,1.89-7.35,4.73-13,7.34l-.06,0c-7.22,3.32-14.7,6.29-15.31,6.53h0l-.14.12c-6.56,5.4-17.34,5.86-17.34,5.86-3.4,2.53-12.45,5.18-20.35,7.15l-.14,0c-6.27,1.56-11.79,2.68-13.13,3l-.14,0h-.05l-.12,0A34,34,0,0,0,282,92a32.94,32.94,0,0,0-1.81-15.32h0a0,0,0,0,1,0,0A32,32,0,0,0,275,67.42s0,0,0,0h0a8,8,0,0,1,1.23-3.09,0,0,0,0,1,0,0c.13-.22.27-.44.4-.64l0,0c.18-.28.36-.53.52-.76a2.74,2.74,0,0,1,1.78-.9,6.54,6.54,0,0,1,1.43-.06c5.65.57,9,1.65,10.93,2.64l.22.12c2,1.07,2.4,2,2.4,2h0a20.82,20.82,0,0,1,6.9-2.93l.16,0a52,52,0,0,1,15.44-.89h.05l1.1-.37,1.18-.4c31.57-10.68,37-9.07,37-9.07l.29-.06,1.95-.44.1.06C364.36,56.4,363.87,60.76,362.68,63.42Z" style="fill:#f11712;stroke:#000;stroke-miterlimit:10;stroke-width:0.25px"/><path d="M281.48,93.16a19.25,19.25,0,0,1,1.3-3.81,24.08,24.08,0,0,1,2.05-3.5A18.62,18.62,0,0,1,291,80.39,16.38,16.38,0,0,1,299,78.67a20.7,20.7,0,0,1,4,.66,22.09,22.09,0,0,1,3.75,1.46l0,.09A23.82,23.82,0,0,0,299,79.41a16.36,16.36,0,0,0-7.6,1.83,18.81,18.81,0,0,0-6,5.07,24.65,24.65,0,0,0-3.85,6.88Z"/><path d="M296.85,86.54a53.92,53.92,0,0,1,32.65-8.35S346,69.37,354.37,66.5a6.42,6.42,0,0,1,2.43-.85,6.56,6.56,0,0,1,3.55.48l-4.18,2.74-8.91,4.49s-12.71,5.85-14.45,6.1a35,35,0,0,1-17.61,6,65.85,65.85,0,0,1-19,6.81c-1.89.55-3.88,1.09-6,1.59-3,.71-5.83,1.28-8.54,1.74a22.81,22.81,0,0,1,2.48-2.21A23.53,23.53,0,0,1,297,88.81c.77-.36,1.56-.71,2.38-1.06,1.35-.57,2.65-1.07,3.91-1.53a24.52,24.52,0,0,0-2.5-.09A22.58,22.58,0,0,0,296.85,86.54Z" style="fill:#bb070e"/><path d="M315.17,85.84c-.77.14-1.54.19-2.31.3l-2.3.16c-1.52.12-3.05.14-4.57.18s-3,0-4.55,0c-.76,0-1.52,0-2.28,0-.38,0-.75,0-1.14,0s-.75.06-1.15.07l0-.09a22.54,22.54,0,0,1,4.54-.75c1.53-.12,3.06-.19,4.6-.22,3.07,0,6.13,0,9.2.22Z"/><path d="M275.32,67.31a15.25,15.25,0,0,1,4.21-.79,16,16,0,0,1,8.54,2.1s4.11,3,14.08,1c0,0,11.09-3.24,19.07-2.74,0,0,10.09-.5,11.46-1.13,0,0-5.11.25-7.85-1.62,0,0,.87-1.74,8.85-2.86,0,0,15.33-2.74,21.31-6.36l.41-1.61-1-.07a19.49,19.49,0,0,0-4.4.35c-.44.07-1.92.4-4.88,1.05-.37.08-1.09.24-2,.47l-1.68.42c-3.76,1-6,1.59-6,1.59-2.63.72-5.7,1.48-9.61,2.79l-9,3a74.57,74.57,0,0,0-9.9.22,46.24,46.24,0,0,0-8.24,1.55A17.14,17.14,0,0,0,296,65.75a16.32,16.32,0,0,0-2.27,1.44,3.46,3.46,0,0,0-.55-.84,4.07,4.07,0,0,0-.82-.74,12.7,12.7,0,0,0-2.63-1.37,17,17,0,0,0-1.83-.6c-.34-.1-1.56-.46-3.3-.81-.25,0-1.33-.26-2.77-.45a8.34,8.34,0,0,0-2.59-.11,6.43,6.43,0,0,0-1.59.43,11.58,11.58,0,0,0-1.4,2.06A11.11,11.11,0,0,0,275.32,67.31Z" style="fill:#bb070e"/><path d="M153.75,162.62l-14.58-.25-3.11-3.61,33.27-.25a23.32,23.32,0,0,1,13-6.48,20.83,20.83,0,0,1,4.56-.1,15.84,15.84,0,0,1-1.08,1.64,16.38,16.38,0,0,1-2,2.24,35.45,35.45,0,0,1-7.1,4.65,36,36,0,0,1-8.41,2.95c-2.13.53-4.48,1-7,1.4a73,73,0,0,1-10.68.78,8.69,8.69,0,0,1-1.54,2.14,9.08,9.08,0,0,1-3.06,2,15,15,0,0,1-7.75.81l-15.89,7.24-.19-3.92,8.32-3.77,3.49-6.24,4.11,2.12Z" style="fill:#0e5783"/><path d="M270.18,41.58a15.16,15.16,0,0,1-2.4,4.58c-4,5.19-10.16,6.1-11.83,6.29a11.45,11.45,0,0,1-.75-.88A13.35,13.35,0,0,1,254,49.71a15.57,15.57,0,0,0,3.24-.28,17.44,17.44,0,0,0,5.55-2.24A38.63,38.63,0,0,0,270.18,41.58Z" style="fill:#e5803a"/><path d="M270.21,41.61c-.43.52-.91,1-1.38,1.44l-1.48,1.31c-1,.85-2.11,1.6-3.2,2.35a29,29,0,0,1-3.52,1.88c-.62.25-1.26.47-1.9.67l-1,.2a8.72,8.72,0,0,1-1,.07v-.07a13.37,13.37,0,0,0,3.66-1.37c1.16-.6,2.29-1.27,3.38-2,2.21-1.41,4.34-2.94,6.4-4.56Z"/><path d="M271.27,37.81A42.19,42.19,0,0,1,253.11,48s-1.93-2.19-.44-4.12a19.73,19.73,0,0,0,2.66,0,20.86,20.86,0,0,0,5.44-1.11,36.17,36.17,0,0,0,5.74-2.18A36.45,36.45,0,0,0,271.27,37.81Z" style="fill:#e5803a"/><path d="M269.87,51.41s-.23,7.43-2.05,9.53L266,62.16Z" style="fill:#e5803a"/><path d="M270.65,49.07c-.15.66-.36,1.28-.54,1.92l-.62,1.88-1.33,3.71c-.52,1.21-.94,2.44-1.41,3.66-.25.61-.47,1.22-.69,1.84l-.34.92a8.68,8.68,0,0,1-.3,1h-.07a22,22,0,0,1,.86-3.86c.38-1.27.81-2.52,1.27-3.75q1.42-3.7,3.11-7.29Z"/><path d="M271.64,65.79s5.84-5.8,9.67-5.59a15.72,15.72,0,0,1,2.4-.75,16.26,16.26,0,0,1,2.19-.33,20,20,0,0,1,2.6-.09,5.54,5.54,0,0,0,2.06.06c1-.16,2.31-.67,2.26-1,0-.2-.42-.3-.59-.35C283.29,55.33,277.4,59,277.4,59c-4.86,3-8.2,8.67-8.2,8.67Z" style="fill:#e5803a"/><path d="M281.4,60.28a12.81,12.81,0,0,0-2.86,1,20.65,20.65,0,0,0-2.58,1.5c-.85.54-1.62,1.18-2.44,1.79-.39.32-.78.65-1.2,1s-.79.67-1.24,1l-.05,0,1-1.19c.37-.37.72-.75,1.1-1.12a19.1,19.1,0,0,1,2.42-2,13.33,13.33,0,0,1,2.78-1.44,8.45,8.45,0,0,1,3.06-.59Z"/><path d="M228.93,93.3s8,2.93,7.23,10.28" style="fill:#bb070e"/><path d="M228.46,92.84a22.53,22.53,0,0,1,4.84,5,24.9,24.9,0,0,1,1.83,3,10.48,10.48,0,0,1,1.15,3.35l-.09,0a19.5,19.5,0,0,0-1.69-3c-.64-1-1.3-1.89-2-2.82-1.34-1.87-2.72-3.7-4.14-5.51Z"/><path d="M245.54,101.52s-5,1.31-5.64,2.34c0,0-2.34,1.59-3.93,1.43s-4.42,3.9-4.42,3.9l4.42-3.12,3-.06,2.75-1.31,2.71-2Z" style="fill:#bb070e"/><path d="M246.44,100.77c0,.32-4.86,4.18-6.73,4.74a11.87,11.87,0,0,1-4.11.37c-.81,0-3.3,3.49-5.36,4.05" style="fill:#bb070e"/><path d="M188.09,102.67A30,30,0,0,1,209,127.82a48.63,48.63,0,0,1,1.22,14.39l-1.12,1.87s1.49,5.14-.1,6.26-6.63-4.3-7-6.26.47-6.17.47-6.17a3.77,3.77,0,0,0-1.4-4.77c-2.8-2-5.61-6.72-5.61-6.72l-2.9-7s6.64.93,9.44,6.72a19.34,19.34,0,0,1,3.28,7.11s3.73-5.89-7.2-16c0,0-9.44-5.8-11.68-9.16S188.09,102.67,188.09,102.67Z" style="fill:url(#linear-gradient-3)"/><path d="M190.83,52.1,179.4,56.81l-5.74,2.31c-1.91.75-3.82,1.53-5.77,2.2,1.94-.71,3.83-1.52,5.73-2.31l5.68-2.43,11.34-4.92Z"/><path d="M167.87,61.27s21.31-8.1,22.93-9.22c0,0,9.59-12,18.19-10.72,0,0,11.84-1.75,17.82,1.12l1.87.25s-2.24-6.48-9-5.86c0,0,4.74-4.48,15.21-2.24,0,0,9.47,1.24,11,14.08l15,15.45-8.1-13.7-4.61-5L247.75,40a14,14,0,0,0,5.16,3.22,7.32,7.32,0,0,0,2.1.24,6.59,6.59,0,0,0,1.87-.42,18.38,18.38,0,0,0-3.08-3.17,14.26,14.26,0,0,0-6.67-3.24,12.62,12.62,0,0,0-3.09-.12,15.14,15.14,0,0,0-4.89-4.11c-2-1.07-3.91-1.44-7.48-2.12a19.92,19.92,0,0,0-3.24-.47,15.54,15.54,0,0,0-6,1,40.78,40.78,0,0,0-4.38,1.95,40.09,40.09,0,0,0-6,3.78,44.68,44.68,0,0,0-6,1.24,46.14,46.14,0,0,0-14.74,7.22,27.43,27.43,0,0,0-16.39.14,26.31,26.31,0,0,0-8.22,4.51c-.94.56-2.13,1.3-3.49,2.22,0,0-1.88,1.27-3.85,2.79a119.4,119.4,0,0,0-9.95,8.92l4.14,2.38a46.13,46.13,0,0,1,23.83-16.34s6.11-3.24,11.47-1.62C188.93,47.93,168.86,58.4,167.87,61.27Z" style="fill:#bb070e"/><path d="M189.21,132c8.94,0,11.22,1.48,11.64,2.85.49,1.62-1.42,3.71-.42,7,.34,1.13.75,1.49.51,1.91-1,1.83-10.52-1.35-10.52-1.35h0A24.28,24.28,0,0,0,189.21,132Z" style="fill:url(#linear-gradient-4)"/><path d="M189,145.81l-52.93-.55s-10.84.5-14.83,4.12l6.07-9.88s-22.24,10.47-23.18,18c0,0-2.43-15.7,16.45-19,0,0,6.55-6.17,6.73-8.88,0,0,2-3.84,6-.1a9.31,9.31,0,0,0,7.94,4.58,27.81,27.81,0,0,0,13.55-6.07,27.11,27.11,0,0,1,10-6.08c1.76-.58,12.54-4,18.42,1.4a16,16,0,0,1,2.89,3.93,24.45,24.45,0,0,1,3.06,8.88A27.92,27.92,0,0,1,189,145.81Z" style="fill:#bb070e"/><path d="M186.09,127.41c-1.16-.35-2.32-.67-3.5-.91s-2.36-.41-3.52-.6a31.74,31.74,0,0,0-7-.1,23.69,23.69,0,0,0-6.68,1.58,24.58,24.58,0,0,0-6,3.37l.12-.11a17.39,17.39,0,0,1-3.62,2.59,25.64,25.64,0,0,1-4,1.7,19.84,19.84,0,0,1-4.16.92,22.81,22.81,0,0,1-4.21.14v-.14a29.41,29.41,0,0,0,4.09-.59,25.8,25.8,0,0,0,4-1.19,25.39,25.39,0,0,0,3.69-1.84,17.67,17.67,0,0,0,3.25-2.5h0a23.36,23.36,0,0,1,6.29-3.67,22.54,22.54,0,0,1,7.11-1.51,29,29,0,0,1,7.26.52,30.3,30.3,0,0,1,6.93,2.23Z" style="fill:#ed1c24"/><path d="M110,160.72a50.89,50.89,0,0,0-9.16,2.19c-3.93,1.35-6.67,2.32-9.25,4.82a16.93,16.93,0,0,0-3.74,5.42,72.09,72.09,0,0,1-7,7.72,72.62,72.62,0,0,1-12.13,9.29c-4.13,3.07-6.47,3.11-7.85,2.52-1.8-.75-1.91-2.52-3.93-3.17-2.91-1-6.08,1.62-6.26,1.77-2.81,2.35-1.26,5.28-4,9.91-2.9,4.86-5.23,11.31-7,10.94s-2.24,12-2.24,12S43.21,209,48.26,206.52a4.37,4.37,0,0,1,1,1.61c.56,1.8-.42,3.25-1.14,6a21.21,21.21,0,0,0-.65,4,61.54,61.54,0,0,1,9.78-9.91,62.29,62.29,0,0,1,12.84-8q7.5-3.5,15.13-7.2,8.61-4.17,16.93-8.37s14-12.34,15.42-10.94a.52.52,0,0,0,.39.19c.51,0,.88-1.35,1-2.18a6.64,6.64,0,0,1,.6-2.83l0,0a14.53,14.53,0,0,0-2.46-3.72A15.47,15.47,0,0,0,110,160.72Z" style="fill:#bb070e"/><path d="M88,170.83a6.58,6.58,0,0,1-.19,1.58,8.86,8.86,0,0,1-.46,1.46,11.29,11.29,0,0,1-1.48,2.6,11.67,11.67,0,0,0,1-2.74,9.9,9.9,0,0,0,.2-1.42,6,6,0,0,0,0-1.36Z"/><path d="M64.25,189.33a4.28,4.28,0,0,1-.66,1,8.29,8.29,0,0,1-.8.77,8.19,8.19,0,0,1-1.85,1.13,8.26,8.26,0,0,0,1.61-1.39,7.08,7.08,0,0,0,.61-.83,3.63,3.63,0,0,0,.43-.89Z"/><path d="M283.27,39.9l3.8,3.92c.1,2.72.21,5.44.31,8.16l.87-8.47Z" style="fill:#e5803a"/><path d="M285.53,18.88a8.13,8.13,0,0,1,3.78,3.18,7.75,7.75,0,0,1,1,2.66,21.18,21.18,0,0,0-3.46-1.54,21.93,21.93,0,0,0-11.4-.61,13.5,13.5,0,0,1,5.32,1.17,13.64,13.64,0,0,1,4.9,3.72s-6.23-3.39-12-.46c.5.22,1.21.55,2.09.93l1.78.75c2,.79,4.49.62,6.94.78,4.52.3,4.36,1.45,6.52.92,3.45-.86,5.1-4.13,5.06-4.61a3,3,0,0,0-.34-1.05,9.89,9.89,0,0,0-10.19-5.84Z" style="fill:#3c160c"/><path d="M252.25,100.48s2.28,6.6-1,9c0,0,1-2.65.55-4C251.79,105.43,251.18,101.55,252.25,100.48Z" style="fill:#bb070e"/><path d="M250.47,95.83A15.1,15.1,0,0,1,252.4,99c.26.57.5,1.14.72,1.73a18.09,18.09,0,0,1,.51,1.82,10.39,10.39,0,0,1,.14,3.9,5.15,5.15,0,0,1-2.13,3.49l.22-.32a8.49,8.49,0,0,1-.58,1.17,7,7,0,0,1-.77,1,4.13,4.13,0,0,1-1.06.79,1.93,1.93,0,0,1-1.26.2v-.1a2.55,2.55,0,0,0,1.93-1.18,7.37,7.37,0,0,0,1-2.12v0h0a4.78,4.78,0,0,0,1.65-3.08,11.4,11.4,0,0,0-.11-3.59,26.14,26.14,0,0,0-2.35-6.84Z"/><path d="M48.37,46.15l21-2.24,21-2c7-.69,14-1.2,21-1.81l21-1.75,21-1.53c7-.49,14-1.06,21-1.46l21.06-1.3,21.07-1v.14L132.5,39.8,48.38,46.29Z" style="fill:#ed1c24"/><path d="M299.52,54.59c-.09.34-.2.65-.31.95a7.94,7.94,0,0,1-.57.71,14.38,14.38,0,0,1-1.2,1.08c-.48.41-.86.71-1.07.87l-1.08.83-.84.68-.85.77a16.46,16.46,0,0,1-1.31,1.11,3.79,3.79,0,0,1-2.27.53,8.94,8.94,0,0,1-3.89-.45,14.25,14.25,0,0,1-5.14-3l-3.9-4-.15-.16-7.22-7.28-1.27-1.29h0a2.11,2.11,0,0,1-.57-.57l-.08-.12h0a5.79,5.79,0,0,1-.77-3.68l.15-.68.86-3.78s1.18-4.08,1-4.91a1.91,1.91,0,0,1-2.34.31,2.7,2.7,0,0,1-.36-.26s-.3-.39-.73-1a20.35,20.35,0,0,1-2.45-4.76,5.77,5.77,0,0,1-.12-4.12l.09-.18c1.61-3.42,3.29-3.49,5.13-3.29a7.73,7.73,0,0,1,2.84,1.49h0a2.81,2.81,0,0,1,.78,1.13,11,11,0,0,1,.6,1.91h0a7,7,0,0,1,.06,3h2.36c0-.26.6-5.05,3.75-7,0,0,0-.26,0-.7h0v0c.13-1.51.51-5,1.59-6.89a6.49,6.49,0,0,1,.39-.62h0a6.63,6.63,0,0,1,1.2-1.33h0l.36-.27h0c1.47-1,3.55-1.33,6.6-.3,0,0,.95.4,2.34,1.06h0a35.54,35.54,0,0,0,6.29,2.21c.87.22,1.71.39,2.51.53l1.71.78a4.54,4.54,0,0,0,.85.87,5.08,5.08,0,0,0,.84.56,2.91,2.91,0,0,1,.35.18,4.27,4.27,0,0,1,1.38,1.31c0,.25,0,.5.05.76s0,.33,0,.49l-.09.53a2.05,2.05,0,0,0-.24.26,2.92,2.92,0,0,0-.54,1.05l.21-.5q0,.29,0,.3s.05-.05.09-.16l.12-.15.36-.43L305,19a1.18,1.18,0,0,1-.11.19,13,13,0,0,1,1.38-.06h.12l.59,0,.13,0a3.06,3.06,0,0,0,.51-.1v.09l1,8.86,0,2a2,2,0,0,1,.2,2.66h0a4,4,0,0,1-.93.87h0l-.33.22s-3.15,1.69-3.75,2.92l1,.74L303,40.66l.14,2c-.17.64-.35,1.28-.54,1.93-.76,2.67-1.72,5.31-2.08,6.46-.08.27-.17.53-.25.8s-.13.4-.21.63-.07.19-.1.3a4.58,4.58,0,0,0-.17.6A11.19,11.19,0,0,1,299.52,54.59Z" style="fill:#faab73;stroke:#000;stroke-miterlimit:10;stroke-width:0.5px"/><path d="M302.71,26.11s-.57,2.42-2.38,3.22c0,0,5.74,3,6.38,4.33a1.48,1.48,0,0,0,.47.08,2.14,2.14,0,0,0,1.95-1.61,2.32,2.32,0,0,0-.44-1.89,16.54,16.54,0,0,1-2.63-1.32A16,16,0,0,1,302.71,26.11Z" style="fill:#5d250f;stroke:#000;stroke-miterlimit:10;stroke-width:0.458748875500361px"/><path d="M280.53,40.64A10,10,0,0,0,287.07,45a31.75,31.75,0,0,0,3.86.81,33.63,33.63,0,0,0,5.3.38,6.57,6.57,0,0,1-1.87,2.21l-.06,0a14.36,14.36,0,0,1-1.5.83,6.64,6.64,0,0,1-1.37.47,1.42,1.42,0,0,1,.63.15,1.58,1.58,0,0,1,.42.36,1.55,1.55,0,0,1,0,1.59s-3.09,1.27-9.07-1.5a5.41,5.41,0,0,1-2.75-1.83,5.51,5.51,0,0,1-.76-1.39,7.09,7.09,0,0,1-.34-3.71A8,8,0,0,1,280.53,40.64Z" style="fill:#fff;stroke:#000;stroke-miterlimit:10;stroke-width:0.5px"/><path d="M284.09,53.78a20.67,20.67,0,0,1,3.85.57c.59.15,1.17.23,1.73.32a4.21,4.21,0,0,0,1.81-.11l.07.06a2.81,2.81,0,0,1-1.81.76,6.64,6.64,0,0,1-2-.13,15.73,15.73,0,0,1-3.7-1.39Z"/><path d="M299.17,21.47a6.36,6.36,0,0,1-1,1.55,6.24,6.24,0,0,1-2,1.47l-.65-.3a10.88,10.88,0,0,0,1.17-.6A10.36,10.36,0,0,0,299.17,21.47Z" style="fill:#5d250f;stroke:#000;stroke-miterlimit:10;stroke-width:0.229374437750181px"/><path d="M291,29.28a10.46,10.46,0,0,1,.52,3.46,10.68,10.68,0,0,1-1.69,5.54,1,1,0,0,0-.48-.16,4.2,4.2,0,0,0-.57.12c-.21,0-.6,0-.65-.08s.31-.24.44-.58.06-.45-.15-1a7.73,7.73,0,0,0-.82-1.48,3.93,3.93,0,0,0,2-1.43S291.24,30.92,291,29.28Z" style="fill:#e5803a"/><path d="M299.62,29.33a5.05,5.05,0,0,0-.24,1.53A5.31,5.31,0,0,0,299.8,33a3.53,3.53,0,0,1-.43,4.78l-.84-.46s1.38-1.12,1-2.37c0,0,0,0,0-.06a.41.41,0,0,1,0-.1,3.12,3.12,0,0,0-1.94-2.13,2.61,2.61,0,0,0-2.07.57,9.34,9.34,0,0,1,1.31-1.79A9.6,9.6,0,0,1,299.62,29.33Z" style="fill:#e5803a"/><path d="M293.86,40.18a7,7,0,0,0,1.34.55,6.12,6.12,0,0,0,1.91.27,4,4,0,0,1-2.82,1.24,3.64,3.64,0,0,1-1.8-.49s-1.87-1.82-2.93-1.93l.41.08a16.15,16.15,0,0,0,2.66.63A2.57,2.57,0,0,0,293.86,40.18Z" style="fill:#e5803a"/><path d="M288.91,40.79a1.09,1.09,0,0,1,.53.09,1.48,1.48,0,0,1,.8.85.9.9,0,0,1-.43.15c-.29,0-.54-.1-1-.42a6.55,6.55,0,0,1-1.08-.93c-1.07-1.23-3.33-2.06-4.76-2.59a20.67,20.67,0,0,0-2.41-.71,7.19,7.19,0,0,1,2.27-.67,8.08,8.08,0,0,1,5.71,1.72,1.16,1.16,0,0,0-.64,1.71l.17.22,0,0a.08.08,0,0,1,0,0l0,0c.17.32.27.5.42.54A.37.37,0,0,0,288.91,40.79Z" style="fill:#e5803a"/><path d="M280.44,29.47s.72-6.72,6.55-3.75c0,0,5.06,2.2,1.05,7.53,0,0-.19.45-1.32.36l-6.32-4.05Z" style="fill:#fff"/><ellipse cx="284.1" cy="29.79" rx="1.48" ry="1.5" transform="translate(132.81 272.09) rotate(-64.01)"/><path d="M283.18,29.48a1.13,1.13,0,0,0,1.1,1.32.14.14,0,0,1,.12.13h0a.14.14,0,0,1,0,.11s0,0-.11,0a1.65,1.65,0,0,1-.9-.36,1.58,1.58,0,0,1-.43-.58,1.44,1.44,0,0,1,0-.67.15.15,0,0,1,.12-.11h0A.13.13,0,0,1,283.18,29.48Z" style="fill:#975626"/><ellipse cx="285.13" cy="29.62" rx="0.76" ry="0.75" transform="translate(133.54 272.92) rotate(-64.01)" style="fill:#fff"/><path d="M278,28.84a9.76,9.76,0,0,1,3.56,1,10.34,10.34,0,0,1,1.59,1,5.46,5.46,0,0,1,1.32,1.35c-1.17-.48-2.23-1-3.31-1.48A20.54,20.54,0,0,1,278,28.84Z"/><path d="M295.94,32.82s2.87-.85,3.5,1.38c0,0,1.14,2.07-.69,3.17a10.86,10.86,0,0,1-3.22-1.21S293.74,34.9,295.94,32.82Z" style="fill:#fff"/><ellipse cx="295.77" cy="34.89" rx="0.9" ry="0.92" transform="translate(134.78 285.45) rotate(-64.01)"/><path d="M295.21,34.7a.69.69,0,0,0,.67.81s.07,0,.08.08h0a.08.08,0,0,1,0,.06s0,0-.06,0a1,1,0,0,1-.55-.23.82.82,0,0,1-.26-.35.68.68,0,0,1,0-.41.07.07,0,0,1,.07-.06h0A.08.08,0,0,1,295.21,34.7Z" style="fill:#975626"/><path d="M299.76,29.26A15.6,15.6,0,0,0,297,31.5a6.53,6.53,0,0,0-1.71,2.86c0,.13-.07.26-.09.39l0,.4a3,3,0,0,0,0,.79,5,5,0,0,0,.56,1.53c.26.53.54,1.05.83,1.56a7.57,7.57,0,0,0,.89,1.39l.13.14v.13a2.6,2.6,0,0,1-.62,1.67,2.73,2.73,0,0,1-1.45.88,4.92,4.92,0,0,1-1.61.15,9.87,9.87,0,0,1-1.54-.24c.52,0,1,0,1.54,0a4.9,4.9,0,0,0,1.44-.35,2.36,2.36,0,0,0,1.09-.81,2.06,2.06,0,0,0,.36-1.2L297,41a8.27,8.27,0,0,1-1.13-1.54c-.3-.53-.59-1-.87-1.58a4.82,4.82,0,0,1-.49-3.76,6.44,6.44,0,0,1,2.13-3A10.88,10.88,0,0,1,299.76,29.26Z"/><path d="M297.63,41.3a1.48,1.48,0,0,1-.72.07,2.62,2.62,0,0,1-.57-.12,3.71,3.71,0,0,1-.93-.48,3.58,3.58,0,0,0,.94-.21,1.94,1.94,0,0,0,.38-.2c.09-.07.24-.19.17-.22Z"/><path d="M277,38.16A4,4,0,0,1,280,37a4.48,4.48,0,0,1,1.57.28,3.13,3.13,0,0,1,1.35.94l0,.09a8.82,8.82,0,0,0-2.89-.4,11.83,11.83,0,0,0-2.9.32Z"/><path d="M295.58,47.15a5.64,5.64,0,0,1-.39.61,14.27,14.27,0,0,1-1.53,1.64,4.82,4.82,0,0,0-1,1.73l-.13.15,0-1.23-.57-.43Z" style="stroke:#000;stroke-miterlimit:10;stroke-width:0.5px"/><path d="M280.48,30a4.61,4.61,0,0,1,3.84-5.86,5.16,5.16,0,0,1,2.71.47,5.62,5.62,0,0,1,2.08,1.73,5,5,0,0,1,.94,2.52A4.86,4.86,0,0,1,288,33.37a5.41,5.41,0,0,0,1-4.31,4.61,4.61,0,0,0-2.55-3.17,3.83,3.83,0,0,0-3.93.26A5,5,0,0,0,280.48,30Z"/><path d="M295.41,33.34a1.89,1.89,0,0,1,2-1.09,2.94,2.94,0,0,1,2.14,1.09,3.19,3.19,0,0,1,.64,2.31,2.51,2.51,0,0,1-.43,1.13,1.24,1.24,0,0,1-1,.59,1.3,1.3,0,0,0,.57-.8,2.36,2.36,0,0,0,.11-.94,3.09,3.09,0,0,0-.64-1.72,2.85,2.85,0,0,0-1.52-1A2,2,0,0,0,295.41,33.34Z"/><path d="M303.89,36.69s-1.26,2.47-.87,4" style="fill:none;stroke:#000;stroke-miterlimit:10;stroke-width:0.917497751000722px"/><path d="M264.29,23.19s2.7-1.23,3.7.34-.84.53-.84.53-.39,0-.5.13,1.2.33.93.92c0,0-1.34.33-1,2.13a2.63,2.63,0,0,1,1.34-1l.89-.09c.06,0,.13.06.13.12s-.2.18-.3.23a4.24,4.24,0,0,0-1,.6c-.16.18-.27.55,0,1.39a2.11,2.11,0,0,0,1.27.71,2.25,2.25,0,0,0,1.92-.82s1.1-.88,1-1.43c0,0-.46.6-2-.26a6.07,6.07,0,0,0-1.43-4.28,2.71,2.71,0,0,0-3.11-.76A2.66,2.66,0,0,0,264.29,23.19Z" style="fill:#e5803a"/><path d="M263.8,23.19a4.53,4.53,0,0,1,.71-1.07,3.61,3.61,0,0,1,1-.8,2.6,2.6,0,0,1,1.34-.24,3.48,3.48,0,0,1,1.22.38l.16.08.05.14A14.05,14.05,0,0,1,269,23.9a7.53,7.53,0,0,1,.15,2.32l0,.19-.18,0a2.37,2.37,0,0,0-1.72.87,1.3,1.3,0,0,0-.15,1,4.25,4.25,0,0,0,.14.51l.24.48a3.48,3.48,0,0,1-.49-1,1.48,1.48,0,0,1,.06-1.11,2,2,0,0,1,.8-.8,3.89,3.89,0,0,1,1.06-.41l-.19.21a6.8,6.8,0,0,0-.37-2.12,12.92,12.92,0,0,0-.82-2l.21.22a2.23,2.23,0,0,0-.86-.17,1.34,1.34,0,0,0-.75.22,2.24,2.24,0,0,0-.6.59,3,3,0,0,0-.41.77Z"/><path d="M301.91,16.23c.25-4.38-8.3-9.22-9.61-8-.23.22-.3.7,0,1.63a15,15,0,0,1-.72,1.89c-.4.86-.61,1.3-1,1.55-.71.45-1.32,0-1.94.22s-1.39,1.19-1.6,4.36a10.87,10.87,0,0,0-2,.42,11,11,0,0,0-3.57,1.87,23.11,23.11,0,0,1,5.59.37,22.53,22.53,0,0,1,5.73,1.92,4.66,4.66,0,0,0-1.22,1.4,4.78,4.78,0,0,0-.61,2.56s-4.4-3.83-7.58-1.74A7.78,7.78,0,0,0,282,26.12a7.87,7.87,0,0,0-1.44,3.58l-2-.62,2.22,1.05a8.26,8.26,0,0,0-5.14,2.34A8.83,8.83,0,0,0,273.49,40s1,9.91,2.29,11.9l1.43,1.91-9.11-8.42s-1.88-1.52-.1-7.26a20.55,20.55,0,0,0,.73-2.51,20.91,20.91,0,0,0,.49-3.43,5.05,5.05,0,0,0,1.53-.73,6.53,6.53,0,0,0,2.42-4.89l1.81-.13s.63-5.42,3.89-7.13c0,0,.19-8.13,3.93-10.28,0,0,2.5-2.49,10.07,1.74a10.21,10.21,0,0,1,6.61-.36c5.54,1.65,7.09,7.69,7.16,8-2.54,1.14-5.71,2.38-6.24,1.6S301.8,18.19,301.91,16.23Z" style="fill:#e5803a"/><path d="M272.53,28.6H275a9.05,9.05,0,0,1,.54-2.44,9.45,9.45,0,0,1,2.59-3.76l2.67-2.83L283.38,11a20.17,20.17,0,0,0,5.36.83,19.77,19.77,0,0,0,5.28-.59q1.25.51,2.64,1a47.83,47.83,0,0,0,4.74,1.35l3.05,2.59,0,2.39A6.79,6.79,0,0,1,301.1,20a1.81,1.81,0,0,1-.63-1.44s.88-.7,1.17.14c0,0,1.07.63-.32-1.38l-.65-.94s-3,2.62-.81,4.69,6.15.06,6.15.06a2.47,2.47,0,0,0,1-.64,3.27,3.27,0,0,0,.43-3,6.63,6.63,0,0,1,.68,1.24,6,6,0,0,1,.44,2.27l.27,3.1a13.8,13.8,0,0,0,5.15-6,3.56,3.56,0,0,0,.82-.8,3.63,3.63,0,0,0,.66-2.3,11.18,11.18,0,0,1-.71-1.61c-.29-.81-.34-1.25-.56-2.05a14.29,14.29,0,0,0-.83-2.18,14.52,14.52,0,0,0-4.46-5.36l-1.19-1.46.12-.25.56-.08a36,36,0,0,0-10.12-.43A20.11,20.11,0,0,0,293.52.39a19.76,19.76,0,0,0-6.06.21c-.57.06-1.16.14-1.75.22-.77.1-1.52.22-2.25.34-1,.3-1.94.59-2.95.88-1.26.36-2.5.69-3.7,1,0,0-3.35,1.11-3.91,1.74,0,0-1.58,5.54-1.62,7.83l-.93,7a21.46,21.46,0,0,1,1.5,2.89c.28.65.52,1.27.71,1.85Z" style="fill:#5d250f;stroke:#000;stroke-miterlimit:10;stroke-width:0.5px"/><path d="M281.56,20.08a13.42,13.42,0,0,1,3.06-1.5c5.72-1.95,11.09.61,12.77,1.5l-1.48,2.21,2.9-2.11a11.24,11.24,0,0,1-1.11,1.35,10.65,10.65,0,0,1-2.83,2.07,27.44,27.44,0,0,0-13.31-3.52Z" style="fill:#5d250f;stroke:#000;stroke-miterlimit:10;stroke-width:0.458748875500361px"/><path d="M303.12,12.37l1.47-4.93s-7-5.4-11.46-6.86c0,0,8.81,4.84,10,6.21Z" style="fill:#3c160c"/><path d="M310.77,5.94s1.23,5.1,1.07,5.74a14.46,14.46,0,0,1-1.77,3.84l1.2-1.24,1.29-2.92-.44-1.74Z" style="fill:#3c160c"/><path d="M294,10.93l-1.37-1s-2.69-3.33-3-3.94l-3.08-1.37,2.83,1.79,3.11,3.73Z" style="fill:#3c160c"/><path d="M279.44,12.61l2.94-1.16-2.75,1.92-3.69-2.57Z" style="fill:#3c160c"/><path d="M280.84,15.12l1.38-1.55-1,1.93-2.91-.41Z" style="fill:#3c160c"/><path d="M291.6,59.6a3.35,3.35,0,0,1,.31,1.08,1.31,1.31,0,0,1,0,.59.82.82,0,0,1-.41.45l0,0a4.84,4.84,0,0,1,0-.54,4.57,4.57,0,0,1,.1-.48,4.69,4.69,0,0,0,0-1.06Z"/><path d="M236,103.74c0-.45.05-.91.06-1.36s0-.89,0-1.33,0-.92.06-1.38,0-.78,0-1.17c0-.59,0-1.18.08-1.77s0-1.17,0-1.76.05-1.06.06-1.6,0-1,.06-1.55,0-1.07.07-1.61c0-.19,0-.38,0-.57,0-.66.07-1.32.07-2,0-.44,0-.89,0-1.33,0-.59,0-1.18.07-1.76s0-.89.05-1.33,0-.81,0-1.22,0-.91,0-1.37c0-.29,0-.59,0-.88,0-.55,0-1.1,0-1.65L237,76.6c0-.54,0-1.08.05-1.61s0-1,.05-1.49,0-1.26.08-1.89,0-1.19.07-1.78,0-1.21.05-1.82c0-.26,0-.52,0-.79,0-.09.06-.08.11-.08a4.72,4.72,0,0,0,.65,0c.48,0,1-.06,1.44-.09l1.05,0c.63,0,1.26-.08,1.9-.1l1.19-.07,1.14-.08,1.07,0,1.87-.1,1.1-.06c.41,0,.82-.07,1.24-.08a2.82,2.82,0,0,1,.41,0c.13,0,.2.09.28.16l1.73,1.56c.4.37.81.73,1.22,1.09l1.58,1.42,1.21,1.09,1.58,1.41,1.25,1.12,1.54,1.38,1.23,1.1,1.26,1.13c.5.46,1,.92,1.53,1.37l1.57,1.4,1.86,1.67,1.57,1.41,1.21,1.09,1.58,1.41.57.51a.24.24,0,0,1,.09.2c0,.52,0,1,.06,1.57s0,1,0,1.46,0,1.16.07,1.74,0,.91,0,1.36,0,.65.05,1a4.51,4.51,0,0,1,0,.52l0,1.19c0,.45.05.9.06,1.35s0,1,0,1.52a7.4,7.4,0,0,0,.05.94c0,.09,0,.14-.13.16-.75.11-1.5.17-2.25.26l-2.69.31-1.28.15c-.53.07-1.07.13-1.61.18l-1.76.2-1.44.18-2.23.25c-.33,0-.66.08-1,.12-.75.07-1.49.17-2.23.24l-1.12.13-1.6.19-1.57.18-1.63.19-2.38.27-1.61.19-1.73.19-2.93.33-2.24.26-1.22.15-1.38.15c-.54.06-1.09.11-1.63.19-.09,0-.18,0-.15-.12A1,1,0,0,0,236,103.74Z" style="fill:#f11712"/><path d="M260.37,88.75l.82.72,1.48,1.32.66.59,1.5,1.34.74.67.62.56c.07.06.1,0,.14,0,.26-.26.49-.55.76-.81s.45-.49.68-.74c.47-.51,1-1,1.41-1.52.24-.26.48-.52.73-.77a3.19,3.19,0,0,1,.45-.45c0,.23,0,.45,0,.67s0,.51,0,.76c0,.47.06.93.08,1.4l.06,1.39c0,.39,0,.77.07,1.16s.05.89.08,1.33c0,.25,0,.5,0,.75s-.07.13-.14.14l-1,.14-1.68.21-2.21.29-3,.39-1.61.2a1.09,1.09,0,0,1,.17-.36,4.58,4.58,0,0,0,.43-1.82,6.07,6.07,0,0,0-.58-2.62,11.14,11.14,0,0,0-.9-1.62,13,13,0,0,0-.82-1.13c-.51-.63-1-1.24-1.58-1.82-.4-.42-.8-.84-1.21-1.25q-.85-.85-1.74-1.68l-.81-.78c-.35-.34-.72-.66-1.08-1s-.46-.44-.68-.67c-.43-.42-.87-.84-1.28-1.28s-.63-.68-.93-1a11,11,0,0,1-1-1.34,5.13,5.13,0,0,1-.7-1.38,2.19,2.19,0,0,1,.24-2,2.53,2.53,0,0,1,1.51-1,4.16,4.16,0,0,1,1.61-.08,9.25,9.25,0,0,1,2.89.94,13.63,13.63,0,0,1,2,1.2,15.32,15.32,0,0,1,1.34,1.07,21,21,0,0,1,1.66,1.61,15.34,15.34,0,0,1,1.17,1.49,7.87,7.87,0,0,1,.87,1.77,4.5,4.5,0,0,1,.25,2,4.69,4.69,0,0,1-.76,2.06A7.54,7.54,0,0,1,260.37,88.75Z" style="fill:#ffe63a;stroke:#000;stroke-miterlimit:10;stroke-width:0.042768233842115px"/><path d="M239.64,79.45a7.78,7.78,0,0,0,.53,1.34,11.68,11.68,0,0,0,1.2,1.82c.2.25.4.51.61.76.43.5.87,1,1.33,1.46s1,1,1.45,1.49,1.05,1,1.59,1.52.93.83,1.38,1.27c.24.24.5.47.74.7L250,91.2c.37.34.72.7,1.07,1s.87.87,1.28,1.32.61.68.9,1a11,11,0,0,1,1.07,1.55,2.23,2.23,0,0,1,.34,1.42c-.12.7-.48.94-1.17,1a5,5,0,0,1-1.64-.23,9,9,0,0,1-1.29-.47,12.2,12.2,0,0,1-1.43-.76,11.25,11.25,0,0,1-1.28-.89,9.48,9.48,0,0,1-1.05-1,7,7,0,0,1-.86-1.11.3.3,0,0,1,0-.26,2.28,2.28,0,0,0,.08-1.07A6.79,6.79,0,0,0,245,90.3a11.5,11.5,0,0,0-.77-1.19,10.2,10.2,0,0,0-1.53-1.62,4.92,4.92,0,0,0-1.37-.83,1.9,1.9,0,0,0-1.66.07l-.08,0v-.49c0-.68,0-1.36,0-2s0-1.24,0-1.85,0-1,0-1.48a14.26,14.26,0,0,1,0-1.46Z" style="fill:#ffe63a;stroke:#000;stroke-miterlimit:10;stroke-width:0.042768233842115px"/><path d="M248.44,99.86c-.41,0-.77,0-1.13.09-.59.06-1.19.1-1.78.15l-.91.06c-.33,0-.67,0-1,.08s-.81.07-1.22.1l-1.87.16-1,.07s-.08,0-.08-.08c0-.84,0-1.69,0-2.53,0-.48,0-1,0-1.44s0-1,0-1.48,0-.72,0-1.09c0-.77,0-1.54,0-2.33a1,1,0,0,1,.15.21c.35.53.7,1.07,1.07,1.59s.78,1,1.19,1.54.68.79,1,1.17a15,15,0,0,0,1.57,1.41,16.52,16.52,0,0,0,2,1.37C247.2,99.24,247.8,99.54,248.44,99.86Z" style="fill:#ffe63a;stroke:#000;stroke-miterlimit:10;stroke-width:0.042768233842115px"/><path d="M252,71.94c-.35-.08-.7-.17-1.05-.24s-.87-.17-1.3-.24a12.41,12.41,0,0,0-2-.16,10.67,10.67,0,0,0-2.1.2,7.68,7.68,0,0,0-2.08.73,7.09,7.09,0,0,0-1.67,1.2,8,8,0,0,0-1.31,1.75.77.77,0,0,1-.17.26v-2.9l0-1.29c0-.38,0-.75,0-1.13,0-.1,0-.12.12-.12l1.43-.11,1.42-.11,1.4-.1,1.41-.1c.57,0,1.15-.07,1.72-.11l1.29-.1a.39.39,0,0,1,.32.12c.5.47,1,.92,1.51,1.38.24.23.49.45.72.68a2.5,2.5,0,0,1,.38.35S252,72,252,71.94Z" style="fill:#ffe63a;stroke:#000;stroke-miterlimit:10;stroke-width:0.042768233842115px"/><path d="M264.38,87.13a5.7,5.7,0,0,0-.3-4.44l.9.8c.48.43,1,.85,1.44,1.28.22.2.43.41.65.59s0,.1,0,.13c-.47.29-.95.56-1.41.86s-.74.44-1.08.69Z" style="fill:#fef100"/></g></g></svg>