<svg width="135" height="40" viewBox="0 0 135 40" fill="none" xmlns="http://www.w3.org/2000/svg">
<path d="M130 0.371582H5C2.23858 0.371582 0 2.54986 0 5.2369V34.4288C0 37.1159 2.23858 39.2941 5 39.2941H130C132.761 39.2941 135 37.1159 135 34.4288V5.2369C135 2.54986 132.761 0.371582 130 0.371582Z" fill="black"/>
<path d="M130 1.15008C131.114 1.15133 132.181 1.58235 132.968 2.34856C133.756 3.11477 134.199 4.1536 134.2 5.23715V34.4291C134.199 35.5126 133.756 36.5514 132.968 37.3176C132.181 38.0838 131.114 38.5149 130 38.5161H5C3.88645 38.5149 2.81888 38.0839 2.0315 37.3177C1.24412 36.5515 0.801231 35.5126 0.8 34.4291V5.23715C0.801212 4.15359 1.24409 3.11474 2.03148 2.34853C2.81886 1.58232 3.88644 1.15131 5 1.15008H130ZM130 0.371826H5C3.67511 0.3756 2.40559 0.889406 1.46875 1.80101C0.531908 2.71262 0.0038781 3.94794 0 5.23715L0 34.4291C0.0038781 35.7183 0.531908 36.9536 1.46875 37.8652C2.40559 38.7768 3.67511 39.2906 5 39.2944H130C131.325 39.2906 132.594 38.7768 133.531 37.8652C134.468 36.9536 134.996 35.7183 135 34.4291V5.23715C134.996 3.94794 134.468 2.71262 133.531 1.80101C132.594 0.889406 131.325 0.3756 130 0.371826Z" fill="#A6A6A6"/>
<path d="M47.4183 10.339C47.4365 10.6961 47.3798 11.053 47.2516 11.3881C47.1235 11.7231 46.9267 12.0293 46.6731 12.288C46.3889 12.5748 46.0456 12.8 45.6658 12.9488C45.286 13.0977 44.8782 13.1668 44.469 13.1517C44.0572 13.1553 43.6488 13.0788 43.2679 12.9266C42.8869 12.7744 42.5411 12.5497 42.2507 12.2656C41.9603 11.9815 41.7312 11.6438 41.5768 11.2723C41.4225 10.9008 41.346 10.503 41.3519 10.1024C41.346 9.70168 41.4225 9.30391 41.5769 8.93241C41.7313 8.56092 41.9604 8.22318 42.2508 7.93906C42.5412 7.65493 42.887 7.43014 43.2679 7.27789C43.6488 7.12564 44.0572 7.049 44.469 7.05248C44.8924 7.05124 45.3115 7.13453 45.7005 7.29721C46.0617 7.4397 46.3833 7.66322 46.639 7.94955L46.1116 8.46313C45.9106 8.23296 45.658 8.05078 45.3732 7.93068C45.0884 7.81057 44.779 7.75574 44.469 7.77041C44.1569 7.76884 43.8477 7.82857 43.5599 7.94603C43.2721 8.06349 43.0116 8.23626 42.7941 8.45399C42.5765 8.67173 42.4064 8.92994 42.2938 9.21318C42.1812 9.49642 42.1286 9.79885 42.139 10.1024C42.1315 10.557 42.263 11.0035 42.5167 11.3853C42.7704 11.7671 43.1349 12.067 43.564 12.247C43.9931 12.427 44.4674 12.4789 44.9269 12.3962C45.3864 12.3135 45.8102 12.0999 46.1448 11.7825C46.4527 11.4596 46.6311 11.0399 46.6477 10.5998H44.469V9.8985H47.3763C47.4038 10.0438 47.4178 10.1912 47.4183 10.339Z" fill="white" stroke="white" stroke-width="0.2" stroke-miterlimit="10"/>
<path d="M52.0278 7.90055H49.2954V9.75161H51.7593V10.453H49.2954V12.3041H52.0278V13.0215H48.5249V7.18311H52.0278V7.90055Z" fill="white" stroke="white" stroke-width="0.2" stroke-miterlimit="10"/>
<path d="M55.2786 13.0215H54.5071V7.90055H52.8313V7.18311H56.9544V7.90055H55.2786V13.0215Z" fill="white" stroke="white" stroke-width="0.2" stroke-miterlimit="10"/>
<path d="M59.938 13.0215V7.18311H60.7085V13.0215H59.938Z" fill="white" stroke="white" stroke-width="0.2" stroke-miterlimit="10"/>
<path d="M64.1284 13.0215H63.3569V7.90055H61.6812V7.18311H65.8042V7.90055H64.1284V13.0215Z" fill="white" stroke="white" stroke-width="0.2" stroke-miterlimit="10"/>
<path d="M73.6092 12.267C73.0252 12.8336 72.2341 13.1517 71.4095 13.1517C70.5848 13.1517 69.7938 12.8336 69.2098 12.267C68.9209 11.9823 68.6937 11.6439 68.5419 11.2721C68.3901 10.9002 68.3167 10.5024 68.326 10.1024C68.3167 9.70232 68.3901 9.30454 68.5419 8.93267C68.6937 8.5608 68.9209 8.22243 69.2098 7.93769C69.4984 7.65673 69.8412 7.43393 70.2185 7.28204C70.5957 7.13014 71.0001 7.05214 71.4083 7.05249C71.8166 7.05284 72.2208 7.13155 72.5978 7.28409C72.9748 7.43663 73.3171 7.66003 73.6053 7.94148C73.8944 8.22548 74.122 8.56309 74.2744 8.93428C74.4269 9.30547 74.5012 9.70269 74.493 10.1024C74.5021 10.5024 74.4285 10.9001 74.2767 11.2719C74.1249 11.6438 73.8979 11.9821 73.6092 12.267ZM69.7791 11.7782C70.2116 12.1983 70.7978 12.4343 71.409 12.4343C72.0202 12.4343 72.6063 12.1983 73.0389 11.7782C73.2607 11.5572 73.4341 11.2948 73.5488 11.0067C73.6634 10.7187 73.7169 10.4111 73.7059 10.1024C73.7169 9.79367 73.6634 9.48601 73.5488 9.19798C73.4341 8.90994 73.2607 8.64752 73.0389 8.42655C72.6063 8.00639 72.0202 7.77041 71.409 7.77041C70.7978 7.77041 70.2116 8.00639 69.7791 8.42655C69.5576 8.64769 69.3844 8.91017 69.2699 9.19818C69.1555 9.48618 69.1021 9.79375 69.1131 10.1024C69.1021 10.411 69.1555 10.7185 69.2699 11.0065C69.3844 11.2946 69.5576 11.557 69.7791 11.7782Z" fill="white" stroke="white" stroke-width="0.2" stroke-miterlimit="10"/>
<path d="M75.5752 13.0215V7.18311H76.5137L79.4297 11.7249H79.4629L79.4297 10.5997V7.18311H80.2012V13.0215H79.3965L76.3457 8.2597H76.3125L76.3457 9.38486V13.0215H75.5752Z" fill="white" stroke="white" stroke-width="0.2" stroke-miterlimit="10"/>
<path d="M68.1359 21.5373C67.2954 21.5404 66.4746 21.7858 65.7773 22.2424C65.08 22.6991 64.5374 23.3465 64.2179 24.103C63.8985 24.8595 63.8166 25.6912 63.9825 26.4929C64.1484 27.2947 64.5548 28.0307 65.1503 28.6079C65.7457 29.1851 66.5036 29.5777 67.3282 29.7361C68.1528 29.8946 69.0071 29.8117 69.7834 29.498C70.5596 29.1843 71.2229 28.6538 71.6895 27.9735C72.1561 27.2933 72.4052 26.4937 72.4052 25.6759C72.4134 25.1288 72.3085 24.5858 72.0967 24.079C71.8849 23.5722 71.5704 23.1121 71.1721 22.7259C70.7738 22.3398 70.2997 22.0356 69.7781 21.8314C69.2565 21.6272 68.698 21.5272 68.1359 21.5373ZM68.1359 28.1841C67.6182 28.22 67.1015 28.1035 66.6529 27.8496C66.2043 27.5958 65.8447 27.2164 65.6208 26.7608C65.3969 26.3053 65.3191 25.7947 65.3976 25.2955C65.4761 24.7964 65.7072 24.3318 66.0609 23.9622C66.4145 23.5927 66.8743 23.3353 67.3804 23.2236C67.8865 23.1119 68.4154 23.1511 68.8983 23.336C69.3812 23.5209 69.7957 23.843 70.0879 24.2603C70.38 24.6776 70.5363 25.1709 70.5363 25.6759C70.552 25.9949 70.5019 26.3137 70.3891 26.6136C70.2763 26.9135 70.1029 27.1884 69.8792 27.4222C69.6555 27.6559 69.3861 27.8437 69.0867 27.9746C68.7873 28.1054 68.464 28.1767 68.1359 28.1841ZM58.8225 21.5373C57.982 21.5404 57.1612 21.7857 56.4639 22.2424C55.7666 22.699 55.2239 23.3464 54.9045 24.1029C54.585 24.8595 54.5031 25.6911 54.669 26.4929C54.8349 27.2947 55.2413 28.0306 55.8367 28.6079C56.4322 29.1851 57.1901 29.5777 58.0147 29.7361C58.8393 29.8946 59.6936 29.8117 60.4698 29.498C61.2461 29.1843 61.9094 28.6538 62.376 27.9735C62.8426 27.2933 63.0917 26.4937 63.0917 25.6759C63.0999 25.1288 62.995 24.5858 62.7832 24.079C62.5714 23.5722 62.2569 23.1121 61.8586 22.726C61.4603 22.3399 60.9863 22.0357 60.4647 21.8314C59.9431 21.6272 59.3846 21.5272 58.8225 21.5373ZM58.8225 28.1841C58.3048 28.22 57.7881 28.1035 57.3395 27.8496C56.8909 27.5958 56.5313 27.2164 56.3074 26.7608C56.0835 26.3053 56.0057 25.7947 56.0842 25.2955C56.1627 24.7964 56.3938 24.3318 56.7475 23.9622C57.1011 23.5927 57.5609 23.3353 58.067 23.2236C58.5731 23.1119 59.102 23.1511 59.5849 23.336C60.0678 23.5209 60.4823 23.843 60.7745 24.2603C61.0666 24.6776 61.2229 25.1709 61.2229 25.6759C61.2386 25.9949 61.1886 26.3137 61.0757 26.6136C60.9629 26.9135 60.7895 27.1884 60.5658 27.4222C60.3422 27.6559 60.0727 27.8437 59.7733 27.9746C59.4739 28.1054 59.1506 28.1767 58.8225 28.1841ZM47.7437 22.8072V24.5629H52.0614C51.9991 25.3864 51.6528 26.1653 51.0786 26.7733C50.6459 27.2024 50.1256 27.5386 49.5511 27.76C48.9767 27.9814 48.361 28.0831 47.7437 28.0587C46.4816 28.0421 45.2771 27.5426 44.3907 26.6683C43.5043 25.794 43.0073 24.6153 43.0073 23.3871C43.0073 22.159 43.5043 20.9802 44.3907 20.1059C45.2771 19.2317 46.4816 18.7322 47.7437 18.7155C48.9559 18.7001 50.1254 19.1508 50.9981 19.9696L52.2708 18.7312C51.6753 18.1576 50.9682 17.7054 50.1908 17.4012C49.4134 17.0971 48.5814 16.9469 47.7437 16.9597C46.8682 16.9473 45.9988 17.1044 45.1863 17.4219C44.3737 17.7393 43.6341 18.2108 43.0105 18.8088C42.3868 19.4069 41.8916 20.1196 41.5536 20.9056C41.2156 21.6916 41.0415 22.5351 41.0415 23.3871C41.0415 24.2391 41.2156 25.0827 41.5536 25.8686C41.8916 26.6546 42.3868 27.3673 43.0105 27.9654C43.6341 28.5635 44.3737 29.0349 45.1863 29.3524C45.9988 29.6698 46.8682 29.8269 47.7437 29.8145C48.5991 29.849 49.4524 29.7061 50.2467 29.3953C51.0411 29.0845 51.7585 28.6129 52.3513 28.0117C53.4037 26.8939 53.9646 25.4197 53.9141 23.9045C53.9182 23.5365 53.8858 23.1691 53.8173 22.8072H47.7437ZM93.052 24.1709C92.7964 23.4213 92.3098 22.7664 91.6584 22.2952C91.007 21.8241 90.2223 21.5594 89.411 21.5373C88.8645 21.5406 88.3244 21.6517 87.8233 21.8639C87.3222 22.076 86.8705 22.3849 86.4956 22.7717C86.1206 23.1586 85.8302 23.6154 85.6418 24.1145C85.4534 24.6137 85.371 25.1448 85.3996 25.6759C85.3872 26.22 85.4878 26.7609 85.6951 27.2664C85.9025 27.7719 86.2124 28.2315 86.6064 28.6178C87.0004 29.0041 87.4703 29.3092 87.9882 29.5148C88.5061 29.7204 89.0612 29.8223 89.6205 29.8145C90.3211 29.8183 91.0118 29.6527 91.6304 29.3325C92.249 29.0124 92.7762 28.5478 93.1647 27.9804L91.7148 27.0398C91.4975 27.3908 91.1903 27.6809 90.8231 27.8815C90.456 28.0821 90.0415 28.1864 89.6205 28.1841C89.1872 28.2002 88.7589 28.0893 88.3912 27.8657C88.0234 27.6421 87.7333 27.3161 87.5583 26.93L93.2454 24.6413L93.052 24.1709ZM87.2523 25.5505C87.2322 25.2493 87.2741 24.9472 87.3755 24.662C87.4769 24.3767 87.6358 24.114 87.8428 23.8892C88.0498 23.6644 88.3008 23.482 88.5812 23.3527C88.8615 23.2235 89.1655 23.1499 89.4754 23.1364C89.798 23.1157 90.1198 23.1879 90.4006 23.344C90.6814 23.5002 90.9087 23.7333 91.0543 24.0143L87.2523 25.5505ZM82.6285 29.5636H84.4973V17.3988H82.6285V29.5636ZM79.5675 22.4622H79.5031C79.2189 22.1618 78.8722 21.924 78.486 21.7645C78.0998 21.605 77.6831 21.5275 77.2637 21.5373C76.167 21.5827 75.1307 22.0386 74.3712 22.8098C73.6117 23.5809 73.1877 24.6078 73.1877 25.6759C73.1877 26.744 73.6117 27.7709 74.3712 28.542C75.1307 29.3132 76.167 29.7691 77.2637 29.8145C77.6847 29.8254 78.1032 29.7469 78.4899 29.5845C78.8767 29.422 79.2224 29.1796 79.5031 28.8739H79.5675V29.4696C79.5675 31.053 78.6976 31.8995 77.2959 31.8995C76.8287 31.8886 76.3755 31.7426 75.9939 31.4802C75.6123 31.2178 75.3197 30.8507 75.1533 30.4259L73.5261 31.0843C73.8327 31.8109 74.3554 32.4318 75.027 32.8675C75.6987 33.3032 76.4887 33.5338 77.2959 33.5298C79.487 33.5298 81.3397 32.2758 81.3397 29.2188V21.7881H79.5675V22.4622ZM77.4249 28.1841C76.7789 28.1308 76.1771 27.8435 75.7385 27.379C75.2999 26.9145 75.0565 26.3067 75.0565 25.6759C75.0565 25.0451 75.2999 24.4373 75.7385 23.9728C76.1771 23.5083 76.7789 23.221 77.4249 23.1677C77.7462 23.183 78.0611 23.261 78.3508 23.3972C78.6405 23.5335 78.899 23.725 79.111 23.9606C79.323 24.1961 79.4841 24.4707 79.5846 24.7681C79.6852 25.0655 79.7232 25.3795 79.6964 25.6915C79.7215 26.0016 79.6821 26.3134 79.5805 26.6083C79.479 26.9031 79.3173 27.1751 79.1053 27.4078C78.8932 27.6405 78.6351 27.8292 78.3464 27.9626C78.0576 28.096 77.7442 28.1713 77.4249 28.1841ZM101.806 17.399H97.3347V29.5636H99.2004V24.9548H101.806C102.334 24.983 102.862 24.9061 103.358 24.729C103.854 24.5519 104.308 24.2781 104.692 23.9246C105.076 23.571 105.381 23.145 105.59 22.6725C105.799 22.2001 105.907 21.6912 105.907 21.1769C105.907 20.6626 105.799 20.1537 105.59 19.6813C105.381 19.2088 105.076 18.7828 104.692 18.4292C104.308 18.0757 103.854 17.8019 103.358 17.6248C102.862 17.4477 102.334 17.3708 101.806 17.399ZM101.854 23.2619H99.2004V19.092H101.854C102.139 19.0863 102.423 19.1359 102.688 19.2381C102.953 19.3403 103.194 19.493 103.398 19.6872C103.602 19.8813 103.764 20.1131 103.874 20.3689C103.985 20.6248 104.042 20.8995 104.042 21.1769C104.042 21.4544 103.985 21.7291 103.874 21.985C103.764 22.2408 103.602 22.4726 103.398 22.6667C103.194 22.8609 102.953 23.0136 102.688 23.1158C102.423 23.218 102.139 23.2676 101.854 23.2619ZM113.386 21.5149C112.705 21.4763 112.027 21.6319 111.436 21.9627C110.844 22.2935 110.365 22.7852 110.056 23.3773L111.713 24.0503C111.877 23.7564 112.126 23.5155 112.429 23.357C112.732 23.1986 113.075 23.1295 113.418 23.1582C113.891 23.1132 114.364 23.2527 114.731 23.546C115.099 23.8394 115.332 24.2627 115.38 24.7231V24.8484C114.781 24.5386 114.112 24.3773 113.434 24.3789C111.649 24.3789 109.831 25.3335 109.831 27.1176C109.849 27.4936 109.943 27.8624 110.11 28.2021C110.277 28.5418 110.512 28.8454 110.801 29.095C111.091 29.3446 111.429 29.5351 111.795 29.6551C112.162 29.7751 112.55 29.8223 112.935 29.7938C113.405 29.8207 113.874 29.7245 114.292 29.5153C114.711 29.3062 115.064 28.9916 115.316 28.6044H115.38V29.5434H117.181V24.8797C117.181 22.72 115.525 21.5149 113.386 21.5149ZM113.161 28.1818C112.549 28.1818 111.697 27.8845 111.697 27.1489C111.697 26.21 112.758 25.8499 113.675 25.8499C114.271 25.8345 114.86 25.9751 115.38 26.2569C115.312 26.7845 115.049 27.2702 114.641 27.624C114.233 27.9779 113.707 28.176 113.161 28.1818ZM123.743 21.781L121.604 27.055H121.54L119.32 21.781H117.31L120.639 29.1521L118.741 33.2524H120.687L125.818 21.781H123.743ZM106.936 29.5636H108.802V17.399H106.936V29.5636Z" fill="white"/>
<path d="M10.4352 7.70663C10.1073 8.08814 9.9417 8.57723 9.97238 9.07369V30.5941C9.94161 31.0906 10.1072 31.5797 10.4352 31.9611L10.5092 32.0313L22.8982 19.9761V19.6917L10.5092 7.63599L10.4352 7.70663Z" fill="url(#paint0_linear)"/>
<path d="M27.0276 23.9962L22.8982 19.976V19.6916L27.0286 15.6725L27.1217 15.7242L32.0145 18.4294C33.4121 19.202 33.4121 20.4662 32.0145 21.2393L27.1217 23.9445L27.0276 23.9962Z" fill="url(#paint1_linear)"/>
<path d="M27.1218 23.9441L22.8983 19.834L10.4353 31.9612C10.7201 32.2056 11.0837 32.3453 11.4633 32.3563C11.8428 32.3672 12.2143 32.2485 12.5134 32.0209L27.1218 23.9441Z" fill="url(#paint2_linear)"/>
<path d="M27.1218 15.7237L12.5134 7.64692C12.2143 7.41932 11.8428 7.30069 11.4633 7.3116C11.0837 7.32252 10.7201 7.46227 10.4353 7.70667L22.8983 19.834L27.1218 15.7237Z" fill="url(#paint3_linear)"/>
<path opacity="0.2" d="M27.0287 23.8535L12.5134 31.8787C12.2258 32.0917 11.8748 32.2079 11.5134 32.2098C11.152 32.2117 10.7997 32.0991 10.5098 31.8891L10.4353 31.9616L10.5093 32.0317L10.5098 32.0313C10.7997 32.2414 11.1519 32.354 11.5134 32.3522C11.8749 32.3503 12.2259 32.234 12.5134 32.0208L27.1218 23.944L27.0287 23.8535Z" fill="black"/>
<path opacity="0.12" d="M10.4354 31.8195C10.1075 31.4379 9.94195 30.9489 9.97261 30.4524V30.5946C9.94193 31.091 10.1075 31.5801 10.4354 31.9616L10.5099 31.8891L10.4354 31.8195Z" fill="black"/>
<path opacity="0.12" d="M32.0147 21.0967L27.0288 23.8536L27.1219 23.9441L32.0147 21.2389C32.3025 21.1173 32.5516 20.9229 32.736 20.6759C32.9203 20.4289 33.0333 20.1383 33.063 19.8344C33.0011 20.1096 32.8742 20.367 32.6922 20.5861C32.5102 20.8052 32.2783 20.9801 32.0147 21.0967Z" fill="black"/>
<path opacity="0.25" d="M12.5133 7.78954L32.0145 18.5711C32.2782 18.6877 32.5102 18.8626 32.6922 19.0818C32.8742 19.3011 33.0011 19.5586 33.0628 19.8339C33.0333 19.5299 32.9204 19.2391 32.736 18.992C32.5516 18.7449 32.3025 18.5504 32.0145 18.4289L12.5133 7.64738C11.1157 6.87466 9.97241 7.5165 9.97241 9.07418V9.21634C9.97241 7.65876 11.1157 7.01693 12.5133 7.78954Z" fill="white"/>
<defs>
<linearGradient id="paint0_linear" x1="21.7995" y1="8.84678" x2="5.47524" y2="25.6229" gradientUnits="userSpaceOnUse">
<stop stop-color="#00A0FF"/>
<stop offset="0.00657" stop-color="#00A1FF"/>
<stop offset="0.2601" stop-color="#00BEFF"/>
<stop offset="0.5122" stop-color="#00D2FF"/>
<stop offset="0.7604" stop-color="#00DFFF"/>
<stop offset="1" stop-color="#00E3FF"/>
</linearGradient>
<linearGradient id="paint1_linear" x1="33.8342" y1="19.8343" x2="9.63728" y2="19.8343" gradientUnits="userSpaceOnUse">
<stop stop-color="#FFE000"/>
<stop offset="0.4087" stop-color="#FFBD00"/>
<stop offset="0.7754" stop-color="#FFA500"/>
<stop offset="1" stop-color="#FF9C00"/>
</linearGradient>
<linearGradient id="paint2_linear" x1="24.8269" y1="22.0673" x2="2.68983" y2="44.8171" gradientUnits="userSpaceOnUse">
<stop stop-color="#FF3A44"/>
<stop offset="1" stop-color="#C31162"/>
</linearGradient>
<linearGradient id="paint3_linear" x1="7.29723" y1="0.543143" x2="17.1823" y2="10.7019" gradientUnits="userSpaceOnUse">
<stop stop-color="#32A071"/>
<stop offset="0.0685" stop-color="#2DA771"/>
<stop offset="0.4762" stop-color="#15CF74"/>
<stop offset="0.8009" stop-color="#06E775"/>
<stop offset="1" stop-color="#00F076"/>
</linearGradient>
</defs>
</svg>
